<svg width="265" height="52" viewBox="0 0 265 52" fill="none" xmlns="http://www.w3.org/2000/svg">
<rect width="265" height="52" rx="26" fill="#242424"/>
<rect x="50" y="8" width="68" height="36" rx="18" fill="#F4F4F4"/>
<path d="M63.184 31V19.8H64.528V24.744H70.336V19.8H71.68V31H70.336V25.848H64.528V31H63.184ZM77.5794 31.192C76.8327 31.192 76.1607 31.0213 75.5634 30.68C74.966 30.3387 74.4914 29.8587 74.1394 29.24C73.798 28.6107 73.6274 27.8747 73.6274 27.032C73.6274 26.1893 73.8034 25.4587 74.1554 24.84C74.5074 24.2107 74.982 23.7253 75.5794 23.384C76.1874 23.0427 76.8647 22.872 77.6114 22.872C78.358 22.872 79.03 23.0427 79.6274 23.384C80.2247 23.7253 80.694 24.2107 81.0354 24.84C81.3874 25.4587 81.5634 26.1893 81.5634 27.032C81.5634 27.8747 81.3874 28.6107 81.0354 29.24C80.6834 29.8587 80.2034 30.3387 79.5954 30.68C78.998 31.0213 78.326 31.192 77.5794 31.192ZM77.5794 30.04C78.038 30.04 78.4647 29.928 78.8594 29.704C79.254 29.48 79.574 29.144 79.8194 28.696C80.0647 28.248 80.1874 27.6933 80.1874 27.032C80.1874 26.3707 80.0647 25.816 79.8194 25.368C79.5847 24.92 79.27 24.584 78.8754 24.36C78.4807 24.136 78.0594 24.024 77.6114 24.024C77.1527 24.024 76.726 24.136 76.3314 24.36C75.9367 24.584 75.6167 24.92 75.3714 25.368C75.126 25.816 75.0034 26.3707 75.0034 27.032C75.0034 27.6933 75.126 28.248 75.3714 28.696C75.6167 29.144 75.9314 29.48 76.3154 29.704C76.71 29.928 77.1314 30.04 77.5794 30.04ZM83.4321 31V23.064H84.6481L84.7441 24.216C85.0001 23.7893 85.3415 23.4587 85.7681 23.224C86.1948 22.9893 86.6748 22.872 87.2081 22.872C87.8375 22.872 88.3761 23 88.8241 23.256C89.2828 23.512 89.6348 23.9013 89.8801 24.424C90.1575 23.944 90.5361 23.5653 91.0161 23.288C91.5068 23.0107 92.0348 22.872 92.6001 22.872C93.5495 22.872 94.3068 23.16 94.8721 23.736C95.4375 24.3013 95.7201 25.176 95.7201 26.36V31H94.3921V26.504C94.3921 25.6827 94.2268 25.064 93.8961 24.648C93.5655 24.232 93.0908 24.024 92.4721 24.024C91.8321 24.024 91.2988 24.2747 90.8721 24.776C90.4561 25.2667 90.2481 25.9707 90.2481 26.888V31H88.9041V26.504C88.9041 25.6827 88.7388 25.064 88.4081 24.648C88.0775 24.232 87.6028 24.024 86.9841 24.024C86.3548 24.024 85.8268 24.2747 85.4001 24.776C84.9841 25.2667 84.7761 25.9707 84.7761 26.888V31H83.4321ZM101.313 31.192C100.555 31.192 99.8833 31.0213 99.2966 30.68C98.71 30.328 98.246 29.8427 97.9046 29.224C97.574 28.6053 97.4086 27.8747 97.4086 27.032C97.4086 26.2 97.574 25.4747 97.9046 24.856C98.2353 24.2267 98.694 23.7413 99.2806 23.4C99.878 23.048 100.566 22.872 101.345 22.872C102.113 22.872 102.774 23.048 103.329 23.4C103.894 23.7413 104.326 24.1947 104.625 24.76C104.923 25.3253 105.073 25.9333 105.073 26.584C105.073 26.7013 105.067 26.8187 105.057 26.936C105.057 27.0533 105.057 27.1867 105.057 27.336H98.7366C98.7686 27.944 98.9073 28.4507 99.1526 28.856C99.4086 29.2507 99.7233 29.5493 100.097 29.752C100.481 29.9547 100.886 30.056 101.313 30.056C101.867 30.056 102.331 29.928 102.705 29.672C103.078 29.416 103.35 29.0693 103.521 28.632H104.849C104.635 29.368 104.225 29.9813 103.617 30.472C103.019 30.952 102.251 31.192 101.313 31.192ZM101.313 24.008C100.673 24.008 100.102 24.2053 99.6006 24.6C99.11 24.984 98.8273 25.5493 98.7526 26.296H103.745C103.713 25.5813 103.467 25.0213 103.009 24.616C102.55 24.2107 101.985 24.008 101.313 24.008Z" fill="#242424"/>
<path d="M137.184 31V19.8H144V20.904H138.528V24.84H143.184V25.928H138.528V31H137.184ZM147.744 31.192C147.083 31.192 146.533 31.08 146.096 30.856C145.659 30.632 145.333 30.3333 145.12 29.96C144.907 29.5867 144.8 29.1813 144.8 28.744C144.8 27.9333 145.109 27.3093 145.728 26.872C146.347 26.4347 147.189 26.216 148.256 26.216H150.4V26.12C150.4 25.4267 150.219 24.904 149.856 24.552C149.493 24.1893 149.008 24.008 148.4 24.008C147.877 24.008 147.424 24.1413 147.04 24.408C146.667 24.664 146.432 25.0427 146.336 25.544H144.96C145.013 24.968 145.205 24.4827 145.536 24.088C145.877 23.6933 146.299 23.3947 146.8 23.192C147.301 22.9787 147.835 22.872 148.4 22.872C149.509 22.872 150.341 23.1707 150.896 23.768C151.461 24.3547 151.744 25.1387 151.744 26.12V31H150.544L150.464 29.576C150.24 30.024 149.909 30.408 149.472 30.728C149.045 31.0373 148.469 31.192 147.744 31.192ZM147.952 30.056C148.464 30.056 148.901 29.9227 149.264 29.656C149.637 29.3893 149.92 29.0427 150.112 28.616C150.304 28.1893 150.4 27.7413 150.4 27.272V27.256H148.368C147.579 27.256 147.019 27.3947 146.688 27.672C146.368 27.9387 146.208 28.2747 146.208 28.68C146.208 29.096 146.357 29.432 146.656 29.688C146.965 29.9333 147.397 30.056 147.952 30.056ZM155.751 31L152.743 23.064H154.151L156.535 29.704L158.935 23.064H160.311L157.303 31H155.751ZM165.017 31.192C164.27 31.192 163.598 31.0213 163.001 30.68C162.404 30.3387 161.929 29.8587 161.577 29.24C161.236 28.6107 161.065 27.8747 161.065 27.032C161.065 26.1893 161.241 25.4587 161.593 24.84C161.945 24.2107 162.42 23.7253 163.017 23.384C163.625 23.0427 164.302 22.872 165.049 22.872C165.796 22.872 166.468 23.0427 167.065 23.384C167.662 23.7253 168.132 24.2107 168.473 24.84C168.825 25.4587 169.001 26.1893 169.001 27.032C169.001 27.8747 168.825 28.6107 168.473 29.24C168.121 29.8587 167.641 30.3387 167.033 30.68C166.436 31.0213 165.764 31.192 165.017 31.192ZM165.017 30.04C165.476 30.04 165.902 29.928 166.297 29.704C166.692 29.48 167.012 29.144 167.257 28.696C167.502 28.248 167.625 27.6933 167.625 27.032C167.625 26.3707 167.502 25.816 167.257 25.368C167.022 24.92 166.708 24.584 166.313 24.36C165.918 24.136 165.497 24.024 165.049 24.024C164.59 24.024 164.164 24.136 163.769 24.36C163.374 24.584 163.054 24.92 162.809 25.368C162.564 25.816 162.441 26.3707 162.441 27.032C162.441 27.6933 162.564 28.248 162.809 28.696C163.054 29.144 163.369 29.48 163.753 29.704C164.148 29.928 164.569 30.04 165.017 30.04ZM170.87 31V23.064H172.086L172.198 24.584C172.443 24.0613 172.816 23.6453 173.318 23.336C173.819 23.0267 174.438 22.872 175.174 22.872V24.28H174.806C174.336 24.28 173.904 24.3653 173.51 24.536C173.115 24.696 172.8 24.9733 172.566 25.368C172.331 25.7627 172.214 26.3067 172.214 27V31H170.87ZM177.498 21.304C177.231 21.304 177.007 21.2187 176.826 21.048C176.655 20.8667 176.57 20.6427 176.57 20.376C176.57 20.12 176.655 19.9067 176.826 19.736C177.007 19.5653 177.231 19.48 177.498 19.48C177.754 19.48 177.973 19.5653 178.154 19.736C178.335 19.9067 178.426 20.12 178.426 20.376C178.426 20.6427 178.335 20.8667 178.154 21.048C177.973 21.2187 177.754 21.304 177.498 21.304ZM176.826 31V23.064H178.17V31H176.826ZM183.646 31C182.921 31 182.35 30.824 181.934 30.472C181.518 30.12 181.31 29.4853 181.31 28.568V24.2H179.934V23.064H181.31L181.486 21.16H182.654V23.064H184.99V24.2H182.654V28.568C182.654 29.0693 182.756 29.4107 182.958 29.592C183.161 29.7627 183.518 29.848 184.03 29.848H184.862V31H183.646ZM190.047 31.192C189.29 31.192 188.618 31.0213 188.031 30.68C187.444 30.328 186.98 29.8427 186.639 29.224C186.308 28.6053 186.143 27.8747 186.143 27.032C186.143 26.2 186.308 25.4747 186.639 24.856C186.97 24.2267 187.428 23.7413 188.015 23.4C188.612 23.048 189.3 22.872 190.079 22.872C190.847 22.872 191.508 23.048 192.063 23.4C192.628 23.7413 193.06 24.1947 193.359 24.76C193.658 25.3253 193.807 25.9333 193.807 26.584C193.807 26.7013 193.802 26.8187 193.791 26.936C193.791 27.0533 193.791 27.1867 193.791 27.336H187.471C187.503 27.944 187.642 28.4507 187.887 28.856C188.143 29.2507 188.458 29.5493 188.831 29.752C189.215 29.9547 189.62 30.056 190.047 30.056C190.602 30.056 191.066 29.928 191.439 29.672C191.812 29.416 192.084 29.0693 192.255 28.632H193.583C193.37 29.368 192.959 29.9813 192.351 30.472C191.754 30.952 190.986 31.192 190.047 31.192ZM190.047 24.008C189.407 24.008 188.836 24.2053 188.335 24.6C187.844 24.984 187.562 25.5493 187.487 26.296H192.479C192.447 25.5813 192.202 25.0213 191.743 24.616C191.284 24.2107 190.719 24.008 190.047 24.008ZM198.628 31.192C197.679 31.192 196.89 30.952 196.26 30.472C195.631 29.992 195.263 29.3413 195.156 28.52H196.532C196.618 28.936 196.836 29.2987 197.188 29.608C197.551 29.9067 198.036 30.056 198.644 30.056C199.21 30.056 199.626 29.9387 199.892 29.704C200.159 29.4587 200.292 29.1707 200.292 28.84C200.292 28.36 200.116 28.04 199.764 27.88C199.423 27.72 198.938 27.576 198.308 27.448C197.882 27.3627 197.455 27.24 197.028 27.08C196.602 26.92 196.244 26.696 195.956 26.408C195.668 26.1093 195.524 25.72 195.524 25.24C195.524 24.5467 195.78 23.9813 196.292 23.544C196.815 23.096 197.519 22.872 198.404 22.872C199.247 22.872 199.935 23.0853 200.468 23.512C201.012 23.928 201.327 24.5253 201.412 25.304H200.084C200.031 24.8987 199.855 24.584 199.556 24.36C199.268 24.1253 198.879 24.008 198.388 24.008C197.908 24.008 197.535 24.1093 197.268 24.312C197.012 24.5147 196.884 24.7813 196.884 25.112C196.884 25.432 197.05 25.6827 197.38 25.864C197.722 26.0453 198.18 26.2 198.756 26.328C199.247 26.4347 199.711 26.568 200.148 26.728C200.596 26.8773 200.959 27.1067 201.236 27.416C201.524 27.7147 201.668 28.152 201.668 28.728C201.679 29.4427 201.407 30.0347 200.852 30.504C200.308 30.9627 199.567 31.192 198.628 31.192Z" fill="#F4F4F4"/>
</svg>
