<svg width="149" height="24" viewBox="0 0 149 24" fill="none" xmlns="http://www.w3.org/2000/svg">
<path d="M4.164 16.144C3.42 16.144 2.776 15.964 2.232 15.604C1.696 15.236 1.284 14.728 0.996 14.08C0.708 13.424 0.564 12.664 0.564 11.8C0.564 10.936 0.708 10.18 0.996 9.532C1.284 8.876 1.696 8.368 2.232 8.008C2.776 7.64 3.42 7.456 4.164 7.456C4.908 7.456 5.548 7.64 6.084 8.008C6.62 8.368 7.032 8.876 7.32 9.532C7.608 10.18 7.752 10.936 7.752 11.8C7.752 12.664 7.608 13.424 7.32 14.08C7.032 14.728 6.62 15.236 6.084 15.604C5.548 15.964 4.908 16.144 4.164 16.144ZM4.164 15.256C4.652 15.256 5.088 15.12 5.472 14.848C5.864 14.568 6.168 14.172 6.384 13.66C6.608 13.14 6.72 12.52 6.72 11.8C6.72 11.08 6.608 10.464 6.384 9.952C6.168 9.44 5.864 9.048 5.472 8.776C5.088 8.496 4.652 8.356 4.164 8.356C3.668 8.356 3.228 8.496 2.844 8.776C2.46 9.048 2.156 9.44 1.932 9.952C1.708 10.464 1.596 11.08 1.596 11.8C1.596 12.52 1.708 13.14 1.932 13.66C2.156 14.172 2.46 14.568 2.844 14.848C3.228 15.12 3.668 15.256 4.164 15.256ZM9.01584 16.06C8.81584 16.06 8.64784 15.996 8.51184 15.868C8.38384 15.732 8.31984 15.568 8.31984 15.376C8.31984 15.184 8.38384 15.024 8.51184 14.896C8.64784 14.76 8.81584 14.692 9.01584 14.692C9.20784 14.692 9.36784 14.76 9.49584 14.896C9.63184 15.024 9.69984 15.184 9.69984 15.376C9.69984 15.568 9.63184 15.732 9.49584 15.868C9.36784 15.996 9.20784 16.06 9.01584 16.06ZM13.8671 16.144C13.1231 16.144 12.4791 15.964 11.9351 15.604C11.3991 15.236 10.9871 14.728 10.6991 14.08C10.4111 13.424 10.2671 12.664 10.2671 11.8C10.2671 10.936 10.4111 10.18 10.6991 9.532C10.9871 8.876 11.3991 8.368 11.9351 8.008C12.4791 7.64 13.1231 7.456 13.8671 7.456C14.6111 7.456 15.2511 7.64 15.7871 8.008C16.3231 8.368 16.7351 8.876 17.0231 9.532C17.3111 10.18 17.4551 10.936 17.4551 11.8C17.4551 12.664 17.3111 13.424 17.0231 14.08C16.7351 14.728 16.3231 15.236 15.7871 15.604C15.2511 15.964 14.6111 16.144 13.8671 16.144ZM13.8671 15.256C14.3551 15.256 14.7911 15.12 15.1751 14.848C15.5671 14.568 15.8711 14.172 16.0871 13.66C16.3111 13.14 16.4231 12.52 16.4231 11.8C16.4231 11.08 16.3111 10.464 16.0871 9.952C15.8711 9.44 15.5671 9.048 15.1751 8.776C14.7911 8.496 14.3551 8.356 13.8671 8.356C13.3711 8.356 12.9311 8.496 12.5471 8.776C12.1631 9.048 11.8591 9.44 11.6351 9.952C11.4111 10.464 11.2991 11.08 11.2991 11.8C11.2991 12.52 11.4111 13.14 11.6351 13.66C11.8591 14.172 12.1631 14.568 12.5471 14.848C12.9311 15.12 13.3711 15.256 13.8671 15.256Z" fill="#F4F4F4"/>
<path d="M32.0489 2.92705C32.3483 2.00574 33.6517 2.00574 33.9511 2.92705L35.4697 7.60081C35.6035 8.01284 35.9875 8.2918 36.4207 8.2918H41.335C42.3037 8.2918 42.7065 9.53141 41.9228 10.1008L37.947 12.9894C37.5966 13.244 37.4499 13.6954 37.5838 14.1074L39.1024 18.7812C39.4017 19.7025 38.3472 20.4686 37.5635 19.8992L33.5878 17.0106C33.2373 16.756 32.7627 16.756 32.4122 17.0106L28.4365 19.8992C27.6528 20.4686 26.5983 19.7025 26.8976 18.7812L28.4162 14.1074C28.5501 13.6954 28.4034 13.244 28.053 12.9894L24.0772 10.1008C23.2935 9.53141 23.6963 8.2918 24.665 8.2918H29.5793C30.0125 8.2918 30.3965 8.01284 30.5303 7.60081L32.0489 2.92705Z" fill="#F4F4F4" fill-opacity="0.2"/>
<path d="M58.0489 2.92705C58.3483 2.00574 59.6517 2.00574 59.9511 2.92705L61.4697 7.60081C61.6035 8.01284 61.9875 8.2918 62.4207 8.2918H67.335C68.3037 8.2918 68.7065 9.53141 67.9228 10.1008L63.947 12.9894C63.5966 13.244 63.4499 13.6954 63.5838 14.1074L65.1024 18.7812C65.4017 19.7025 64.3472 20.4686 63.5635 19.8992L59.5878 17.0106C59.2373 16.756 58.7627 16.756 58.4122 17.0106L54.4365 19.8992C53.6528 20.4686 52.5983 19.7025 52.8976 18.7812L54.4162 14.1074C54.5501 13.6954 54.4034 13.244 54.053 12.9894L50.0772 10.1008C49.2935 9.53141 49.6963 8.2918 50.665 8.2918H55.5793C56.0125 8.2918 56.3965 8.01284 56.5303 7.60081L58.0489 2.92705Z" fill="#F4F4F4" fill-opacity="0.2"/>
<path d="M84.0489 2.92705C84.3483 2.00574 85.6517 2.00574 85.9511 2.92705L87.4697 7.60081C87.6035 8.01284 87.9875 8.2918 88.4207 8.2918H93.335C94.3037 8.2918 94.7065 9.53141 93.9228 10.1008L89.947 12.9894C89.5966 13.244 89.4499 13.6954 89.5838 14.1074L91.1024 18.7812C91.4017 19.7025 90.3472 20.4686 89.5635 19.8992L85.5878 17.0106C85.2373 16.756 84.7627 16.756 84.4122 17.0106L80.4365 19.8992C79.6528 20.4686 78.5983 19.7025 78.8976 18.7812L80.4162 14.1074C80.5501 13.6954 80.4034 13.244 80.053 12.9894L76.0772 10.1008C75.2935 9.53141 75.6963 8.2918 76.665 8.2918H81.5793C82.0125 8.2918 82.3965 8.01284 82.5303 7.60081L84.0489 2.92705Z" fill="#F4F4F4" fill-opacity="0.2"/>
<path d="M110.049 2.92705C110.348 2.00574 111.652 2.00574 111.951 2.92705L113.47 7.60081C113.604 8.01284 113.987 8.2918 114.421 8.2918H119.335C120.304 8.2918 120.706 9.53141 119.923 10.1008L115.947 12.9894C115.597 13.244 115.45 13.6954 115.584 14.1074L117.102 18.7812C117.402 19.7025 116.347 20.4686 115.564 19.8992L111.588 17.0106C111.237 16.756 110.763 16.756 110.412 17.0106L106.436 19.8992C105.653 20.4686 104.598 19.7025 104.898 18.7812L106.416 14.1074C106.55 13.6954 106.403 13.244 106.053 12.9894L102.077 10.1008C101.294 9.53141 101.696 8.2918 102.665 8.2918H107.579C108.013 8.2918 108.396 8.01284 108.53 7.60081L110.049 2.92705Z" fill="#F4F4F4" fill-opacity="0.2"/>
<path d="M136.049 2.92705C136.348 2.00574 137.652 2.00574 137.951 2.92705L139.47 7.60081C139.604 8.01284 139.987 8.2918 140.421 8.2918H145.335C146.304 8.2918 146.706 9.53141 145.923 10.1008L141.947 12.9894C141.597 13.244 141.45 13.6954 141.584 14.1074L143.102 18.7812C143.402 19.7025 142.347 20.4686 141.564 19.8992L137.588 17.0106C137.237 16.756 136.763 16.756 136.412 17.0106L132.436 19.8992C131.653 20.4686 130.598 19.7025 130.898 18.7812L132.416 14.1074C132.55 13.6954 132.403 13.244 132.053 12.9894L128.077 10.1008C127.294 9.53141 127.696 8.2918 128.665 8.2918H133.579C134.013 8.2918 134.396 8.01284 134.53 7.60081L136.049 2.92705Z" fill="#F4F4F4" fill-opacity="0.2"/>
</svg>
