<svg width="118" height="18" viewBox="0 0 118 18" fill="none" xmlns="http://www.w3.org/2000/svg">
<path d="M4.692 13V11.2H0.432V10.42L4.512 4.6H5.688V10.312H6.936V11.2H5.688V13H4.692ZM1.548 10.312H4.74V5.716L1.548 10.312ZM8.44163 13.06C8.24163 13.06 8.07363 12.996 7.93763 12.868C7.80963 12.732 7.74563 12.568 7.74563 12.376C7.74563 12.184 7.80963 12.024 7.93763 11.896C8.07363 11.76 8.24163 11.692 8.44163 11.692C8.63363 11.692 8.79363 11.76 8.92163 11.896C9.05763 12.024 9.12563 12.184 9.12563 12.376C9.12563 12.568 9.05763 12.732 8.92163 12.868C8.79363 12.996 8.63363 13.06 8.44163 13.06ZM13.2929 13.144C12.5489 13.144 11.9049 12.964 11.3609 12.604C10.8249 12.236 10.4129 11.728 10.1249 11.08C9.83691 10.424 9.69291 9.664 9.69291 8.8C9.69291 7.936 9.83691 7.18 10.1249 6.532C10.4129 5.876 10.8249 5.368 11.3609 5.008C11.9049 4.64 12.5489 4.456 13.2929 4.456C14.0369 4.456 14.6769 4.64 15.2129 5.008C15.7489 5.368 16.1609 5.876 16.4489 6.532C16.7369 7.18 16.8809 7.936 16.8809 8.8C16.8809 9.664 16.7369 10.424 16.4489 11.08C16.1609 11.728 15.7489 12.236 15.2129 12.604C14.6769 12.964 14.0369 13.144 13.2929 13.144ZM13.2929 12.256C13.7809 12.256 14.2169 12.12 14.6009 11.848C14.9929 11.568 15.2969 11.172 15.5129 10.66C15.7369 10.14 15.8489 9.52 15.8489 8.8C15.8489 8.08 15.7369 7.464 15.5129 6.952C15.2969 6.44 14.9929 6.048 14.6009 5.776C14.2169 5.496 13.7809 5.356 13.2929 5.356C12.7969 5.356 12.3569 5.496 11.9729 5.776C11.5889 6.048 11.2849 6.44 11.0609 6.952C10.8369 7.464 10.7249 8.08 10.7249 8.8C10.7249 9.52 10.8369 10.14 11.0609 10.66C11.2849 11.172 11.5889 11.568 11.9729 11.848C12.3569 12.12 12.7969 12.256 13.2929 12.256Z" fill="#F4F4F4"/>
<path d="M28.0489 2.92705C28.3483 2.00574 29.6517 2.00574 29.9511 2.92705L30.7961 5.52786C30.93 5.93989 31.3139 6.21885 31.7472 6.21885H34.4818C35.4505 6.21885 35.8533 7.45846 35.0696 8.02786L32.8572 9.63525C32.5067 9.8899 32.3601 10.3413 32.494 10.7533L33.339 13.3541C33.6384 14.2754 32.5839 15.0415 31.8002 14.4721L29.5878 12.8647C29.2373 12.6101 28.7627 12.6101 28.4122 12.8647L26.1998 14.4721C25.4161 15.0415 24.3616 14.2754 24.661 13.3541L25.506 10.7533C25.6399 10.3413 25.4933 9.8899 25.1428 9.63525L22.9304 8.02787C22.1467 7.45846 22.5495 6.21885 23.5182 6.21885H26.2528C26.6861 6.21885 27.07 5.93989 27.2039 5.52786L28.0489 2.92705Z" fill="#EEA10C"/>
<path d="M48.0489 2.92705C48.3483 2.00574 49.6517 2.00574 49.9511 2.92705L50.7961 5.52786C50.93 5.93989 51.3139 6.21885 51.7472 6.21885H54.4818C55.4505 6.21885 55.8533 7.45846 55.0696 8.02786L52.8572 9.63525C52.5067 9.8899 52.3601 10.3413 52.494 10.7533L53.339 13.3541C53.6384 14.2754 52.5839 15.0415 51.8002 14.4721L49.5878 12.8647C49.2373 12.6101 48.7627 12.6101 48.4122 12.8647L46.1998 14.4721C45.4161 15.0415 44.3616 14.2754 44.661 13.3541L45.506 10.7533C45.6399 10.3413 45.4933 9.8899 45.1428 9.63525L42.9304 8.02787C42.1467 7.45846 42.5495 6.21885 43.5182 6.21885H46.2528C46.6861 6.21885 47.07 5.93989 47.2039 5.52786L48.0489 2.92705Z" fill="#EEA10C"/>
<path d="M68.0489 2.92705C68.3483 2.00574 69.6517 2.00574 69.9511 2.92705L70.7961 5.52786C70.93 5.93989 71.3139 6.21885 71.7472 6.21885H74.4818C75.4505 6.21885 75.8533 7.45846 75.0696 8.02786L72.8572 9.63525C72.5067 9.8899 72.3601 10.3413 72.494 10.7533L73.339 13.3541C73.6384 14.2754 72.5839 15.0415 71.8002 14.4721L69.5878 12.8647C69.2373 12.6101 68.7627 12.6101 68.4122 12.8647L66.1998 14.4721C65.4161 15.0415 64.3616 14.2754 64.661 13.3541L65.506 10.7533C65.6399 10.3413 65.4933 9.8899 65.1428 9.63525L62.9304 8.02787C62.1467 7.45846 62.5495 6.21885 63.5182 6.21885H66.2528C66.6861 6.21885 67.07 5.93989 67.2039 5.52786L68.0489 2.92705Z" fill="#EEA10C"/>
<path d="M88.0489 2.92705C88.3483 2.00574 89.6517 2.00574 89.9511 2.92705L90.7961 5.52786C90.93 5.93989 91.3139 6.21885 91.7472 6.21885H94.4818C95.4505 6.21885 95.8533 7.45846 95.0696 8.02786L92.8572 9.63525C92.5067 9.8899 92.3601 10.3413 92.494 10.7533L93.339 13.3541C93.6384 14.2754 92.5839 15.0415 91.8002 14.4721L89.5878 12.8647C89.2373 12.6101 88.7627 12.6101 88.4122 12.8647L86.1998 14.4721C85.4161 15.0415 84.3616 14.2754 84.661 13.3541L85.506 10.7533C85.6399 10.3413 85.4933 9.8899 85.1428 9.63525L82.9304 8.02787C82.1467 7.45846 82.5495 6.21885 83.5182 6.21885H86.2528C86.6861 6.21885 87.07 5.93989 87.2039 5.52786L88.0489 2.92705Z" fill="#EEA10C"/>
<path d="M108.049 2.92705C108.348 2.00574 109.652 2.00574 109.951 2.92705L110.796 5.52786C110.93 5.93989 111.314 6.21885 111.747 6.21885H114.482C115.451 6.21885 115.853 7.45846 115.07 8.02786L112.857 9.63525C112.507 9.8899 112.36 10.3413 112.494 10.7533L113.339 13.3541C113.638 14.2754 112.584 15.0415 111.8 14.4721L109.588 12.8647C109.237 12.6101 108.763 12.6101 108.412 12.8647L106.2 14.4721C105.416 15.0415 104.362 14.2754 104.661 13.3541L105.506 10.7533C105.64 10.3413 105.493 9.8899 105.143 9.63525L102.93 8.02787C102.147 7.45846 102.549 6.21885 103.518 6.21885H106.253C106.686 6.21885 107.07 5.93989 107.204 5.52786L108.049 2.92705Z" fill="#F4F4F4" fill-opacity="0.2"/>
</svg>
