<svg width="277" height="32" viewBox="0 0 277 32" fill="none" xmlns="http://www.w3.org/2000/svg">
<rect x="0.5" y="0.5" width="31" height="31" rx="15.5" stroke="#242424" stroke-opacity="0.1"/>
<path d="M10.8329 16.5917C10.7548 16.5142 10.6928 16.4221 10.6505 16.3205C10.6082 16.219 10.5864 16.11 10.5864 16C10.5864 15.89 10.6082 15.7811 10.6505 15.6795C10.6928 15.578 10.7548 15.4858 10.8329 15.4084L14.6579 11.5917C14.736 11.5142 14.798 11.422 14.8403 11.3205C14.8826 11.2189 14.9044 11.11 14.9044 11C14.9044 10.89 14.8826 10.7811 14.8403 10.6795C14.798 10.578 14.736 10.4858 14.6579 10.4083C14.5018 10.2531 14.2905 10.166 14.0704 10.166C13.8502 10.166 13.639 10.2531 13.4829 10.4083L9.65789 14.2334C9.18972 14.7021 8.92676 15.3375 8.92676 16C8.92676 16.6625 9.18972 17.2979 9.65789 17.7667L13.4829 21.5917C13.6381 21.7457 13.8476 21.8324 14.0662 21.8334C14.1759 21.834 14.2846 21.813 14.3861 21.7715C14.4877 21.73 14.58 21.6689 14.6579 21.5917C14.736 21.5142 14.798 21.4221 14.8403 21.3205C14.8826 21.219 14.9044 21.11 14.9044 21C14.9044 20.89 14.8826 20.7811 14.8403 20.6795C14.798 20.578 14.736 20.4858 14.6579 20.4084L10.8329 16.5917Z" fill="#242424" fill-opacity="0.5"/>
<path d="M17.8329 16.5917C17.7548 16.5142 17.6928 16.4221 17.6505 16.3205C17.6082 16.219 17.5864 16.11 17.5864 16C17.5864 15.89 17.6082 15.7811 17.6505 15.6795C17.6928 15.578 17.7548 15.4858 17.8329 15.4084L21.6579 11.5917C21.736 11.5142 21.798 11.422 21.8403 11.3205C21.8826 11.2189 21.9044 11.11 21.9044 11C21.9044 10.89 21.8826 10.7811 21.8403 10.6795C21.798 10.578 21.736 10.4858 21.6579 10.4083C21.5018 10.2531 21.2905 10.166 21.0704 10.166C20.8502 10.166 20.639 10.2531 20.4829 10.4083L16.6579 14.2334C16.1897 14.7021 15.9268 15.3375 15.9268 16C15.9268 16.6625 16.1897 17.2979 16.6579 17.7667L20.4829 21.5917C20.6381 21.7457 20.8476 21.8324 21.0662 21.8334C21.1759 21.834 21.2846 21.813 21.3861 21.7715C21.4877 21.73 21.58 21.6689 21.6579 21.5917C21.736 21.5142 21.798 21.4221 21.8403 21.3205C21.8826 21.219 21.9044 21.11 21.9044 21C21.9044 20.89 21.8826 20.7811 21.8403 20.6795C21.798 20.578 21.736 20.4858 21.6579 20.4084L17.8329 16.5917Z" fill="#242424" fill-opacity="0.5"/>
<rect x="36.5" y="0.5" width="31" height="31" rx="15.5" stroke="#242424" stroke-opacity="0.1"/>
<path d="M50.8329 16.5917C50.7548 16.5142 50.6928 16.4221 50.6505 16.3205C50.6082 16.219 50.5864 16.11 50.5864 16C50.5864 15.89 50.6082 15.7811 50.6505 15.6795C50.6928 15.578 50.7548 15.4858 50.8329 15.4084L54.6579 11.5917C54.736 11.5142 54.798 11.422 54.8403 11.3205C54.8826 11.2189 54.9044 11.11 54.9044 11C54.9044 10.89 54.8826 10.7811 54.8403 10.6795C54.798 10.578 54.736 10.4858 54.6579 10.4083C54.5018 10.2531 54.2905 10.166 54.0704 10.166C53.8502 10.166 53.639 10.2531 53.4829 10.4083L49.6579 14.2334C49.1897 14.7021 48.9268 15.3375 48.9268 16C48.9268 16.6625 49.1897 17.2979 49.6579 17.7667L53.4829 21.5917C53.6381 21.7457 53.8476 21.8324 54.0662 21.8334C54.1759 21.834 54.2846 21.813 54.3861 21.7715C54.4877 21.73 54.58 21.6689 54.6579 21.5917C54.736 21.5142 54.798 21.4221 54.8403 21.3205C54.8826 21.219 54.9044 21.11 54.9044 21C54.9044 20.89 54.8826 20.7811 54.8403 20.6795C54.798 20.578 54.736 20.4858 54.6579 20.4084L50.8329 16.5917Z" fill="#242424" fill-opacity="0.5"/>
<rect x="88.5" y="0.5" width="31" height="31" rx="15.5" stroke="#242424"/>
<path d="M103.432 24V9.456L100.72 10.056V8.664L104.104 7.2H105.472V24H103.432Z" fill="#242424"/>
<path d="M129.512 24V22.584C130.648 21.688 131.72 20.784 132.728 19.872C133.752 18.944 134.656 18.032 135.44 17.136C136.24 16.24 136.864 15.36 137.312 14.496C137.776 13.632 138.008 12.8 138.008 12C138.008 11.408 137.904 10.856 137.696 10.344C137.504 9.832 137.184 9.424 136.736 9.12C136.288 8.8 135.68 8.64 134.912 8.64C134.176 8.64 133.56 8.808 133.064 9.144C132.568 9.464 132.192 9.896 131.936 10.44C131.696 10.984 131.576 11.568 131.576 12.192H129.632C129.632 11.088 129.864 10.144 130.328 9.36C130.792 8.56 131.424 7.952 132.224 7.536C133.024 7.12 133.928 6.912 134.936 6.912C136.424 6.912 137.64 7.336 138.584 8.184C139.544 9.016 140.024 10.264 140.024 11.928C140.024 12.92 139.776 13.904 139.28 14.88C138.784 15.84 138.152 16.776 137.384 17.688C136.616 18.584 135.792 19.424 134.912 20.208C134.048 20.992 133.24 21.696 132.488 22.32H140.6V24H129.512Z" fill="#D5D5D5"/>
<path d="M157.008 24.288C155.936 24.288 154.968 24.096 154.104 23.712C153.24 23.312 152.544 22.72 152.016 21.936C151.504 21.152 151.232 20.176 151.2 19.008H153.24C153.256 19.968 153.592 20.8 154.248 21.504C154.904 22.192 155.824 22.536 157.008 22.536C158.192 22.536 159.08 22.208 159.672 21.552C160.28 20.896 160.584 20.104 160.584 19.176C160.584 18.392 160.392 17.752 160.008 17.256C159.64 16.76 159.136 16.392 158.496 16.152C157.872 15.912 157.184 15.792 156.432 15.792H155.184V14.088H156.432C157.52 14.088 158.368 13.84 158.976 13.344C159.6 12.848 159.912 12.152 159.912 11.256C159.912 10.504 159.664 9.888 159.168 9.408C158.688 8.912 157.968 8.664 157.008 8.664C156.08 8.664 155.336 8.944 154.776 9.504C154.216 10.048 153.904 10.736 153.84 11.568H151.8C151.848 10.656 152.088 9.848 152.52 9.144C152.968 8.44 153.576 7.896 154.344 7.512C155.112 7.112 156 6.912 157.008 6.912C158.096 6.912 159 7.104 159.72 7.488C160.456 7.872 161.008 8.384 161.376 9.024C161.76 9.664 161.952 10.368 161.952 11.136C161.952 11.984 161.72 12.76 161.256 13.464C160.792 14.152 160.096 14.616 159.168 14.856C160.16 15.064 160.984 15.536 161.64 16.272C162.296 17.008 162.624 17.976 162.624 19.176C162.624 20.104 162.408 20.96 161.976 21.744C161.56 22.512 160.936 23.128 160.104 23.592C159.272 24.056 158.24 24.288 157.008 24.288Z" fill="#D5D5D5"/>
<path d="M175.352 24.12C174.952 24.12 174.616 23.992 174.344 23.736C174.088 23.464 173.96 23.136 173.96 22.752C173.96 22.368 174.088 22.048 174.344 21.792C174.616 21.52 174.952 21.384 175.352 21.384C175.736 21.384 176.056 21.52 176.312 21.792C176.584 22.048 176.72 22.368 176.72 22.752C176.72 23.136 176.584 23.464 176.312 23.736C176.056 23.992 175.736 24.12 175.352 24.12ZM181 24.12C180.6 24.12 180.264 23.992 179.992 23.736C179.736 23.464 179.608 23.136 179.608 22.752C179.608 22.368 179.736 22.048 179.992 21.792C180.264 21.52 180.6 21.384 181 21.384C181.384 21.384 181.704 21.52 181.96 21.792C182.232 22.048 182.368 22.368 182.368 22.752C182.368 23.136 182.232 23.464 181.96 23.736C181.704 23.992 181.384 24.12 181 24.12ZM186.647 24.12C186.247 24.12 185.911 23.992 185.639 23.736C185.383 23.464 185.255 23.136 185.255 22.752C185.255 22.368 185.383 22.048 185.639 21.792C185.911 21.52 186.247 21.384 186.647 21.384C187.031 21.384 187.351 21.52 187.607 21.792C187.879 22.048 188.015 22.368 188.015 22.752C188.015 23.136 187.879 23.464 187.607 23.736C187.351 23.992 187.031 24.12 186.647 24.12Z" fill="#D5D5D5"/>
<rect x="-0.5" y="0.5" width="31" height="31" rx="15.5" transform="matrix(-1 0 0 1 276 0)" stroke="#242424"/>
<path d="M266.167 16.5917C266.245 16.5142 266.307 16.4221 266.35 16.3205C266.392 16.219 266.414 16.11 266.414 16C266.414 15.89 266.392 15.7811 266.35 15.6795C266.307 15.578 266.245 15.4858 266.167 15.4084L262.342 11.5917C262.264 11.5142 262.202 11.422 262.16 11.3205C262.117 11.2189 262.096 11.11 262.096 11C262.096 10.89 262.117 10.7811 262.16 10.6795C262.202 10.578 262.264 10.4858 262.342 10.4083C262.498 10.2531 262.709 10.166 262.93 10.166C263.15 10.166 263.361 10.2531 263.517 10.4083L267.342 14.2334C267.81 14.7021 268.073 15.3375 268.073 16C268.073 16.6625 267.81 17.2979 267.342 17.7667L263.517 21.5917C263.362 21.7457 263.152 21.8324 262.934 21.8334C262.824 21.834 262.715 21.813 262.614 21.7715C262.512 21.73 262.42 21.6689 262.342 21.5917C262.264 21.5142 262.202 21.4221 262.16 21.3205C262.117 21.219 262.096 21.11 262.096 21C262.096 20.89 262.117 20.7811 262.16 20.6795C262.202 20.578 262.264 20.4858 262.342 20.4084L266.167 16.5917Z" fill="#242424"/>
<path d="M259.167 16.5917C259.245 16.5142 259.307 16.4221 259.35 16.3205C259.392 16.219 259.414 16.11 259.414 16C259.414 15.89 259.392 15.7811 259.35 15.6795C259.307 15.578 259.245 15.4858 259.167 15.4084L255.342 11.5917C255.264 11.5142 255.202 11.422 255.16 11.3205C255.117 11.2189 255.096 11.11 255.096 11C255.096 10.89 255.117 10.7811 255.16 10.6795C255.202 10.578 255.264 10.4858 255.342 10.4083C255.498 10.2531 255.709 10.166 255.93 10.166C256.15 10.166 256.361 10.2531 256.517 10.4083L260.342 14.2334C260.81 14.7021 261.073 15.3375 261.073 16C261.073 16.6625 260.81 17.2979 260.342 17.7667L256.517 21.5917C256.362 21.7457 256.152 21.8324 255.934 21.8334C255.824 21.834 255.715 21.813 255.614 21.7715C255.512 21.73 255.42 21.6689 255.342 21.5917C255.264 21.5142 255.202 21.4221 255.16 21.3205C255.117 21.219 255.096 21.11 255.096 21C255.096 20.89 255.117 20.7811 255.16 20.6795C255.202 20.578 255.264 20.4858 255.342 20.4084L259.167 16.5917Z" fill="#242424"/>
<rect x="-0.5" y="0.5" width="31" height="31" rx="15.5" transform="matrix(-1 0 0 1 240 0)" stroke="#242424"/>
<path d="M226.167 16.5917C226.245 16.5142 226.307 16.4221 226.35 16.3205C226.392 16.219 226.414 16.11 226.414 16C226.414 15.89 226.392 15.7811 226.35 15.6795C226.307 15.578 226.245 15.4858 226.167 15.4084L222.342 11.5917C222.264 11.5142 222.202 11.422 222.16 11.3205C222.117 11.2189 222.096 11.11 222.096 11C222.096 10.89 222.117 10.7811 222.16 10.6795C222.202 10.578 222.264 10.4858 222.342 10.4083C222.498 10.2531 222.709 10.166 222.93 10.166C223.15 10.166 223.361 10.2531 223.517 10.4083L227.342 14.2334C227.81 14.7021 228.073 15.3375 228.073 16C228.073 16.6625 227.81 17.2979 227.342 17.7667L223.517 21.5917C223.362 21.7457 223.152 21.8324 222.934 21.8334C222.824 21.834 222.715 21.813 222.614 21.7715C222.512 21.73 222.42 21.6689 222.342 21.5917C222.264 21.5142 222.202 21.4221 222.16 21.3205C222.117 21.219 222.096 21.11 222.096 21C222.096 20.89 222.117 20.7811 222.16 20.6795C222.202 20.578 222.264 20.4858 222.342 20.4084L226.167 16.5917Z" fill="#242424"/>
</svg>
