<svg width="156" height="44" viewBox="0 0 156 44" fill="none" xmlns="http://www.w3.org/2000/svg">
<rect x="0.5" y="0.5" width="43" height="43" rx="9.5" stroke="#F4F4F4" stroke-opacity="0.1"/>
<g opacity="0.8">
<path d="M25.0804 12.0601C25.2904 12.0601 25.5004 12.0601 25.9204 12.0601V15.2101C25.7104 15.2101 25.2904 15.2101 24.8704 15.2101C24.4504 15.2101 24.0304 15.2101 23.8204 15.4201C23.6104 15.6301 23.6104 15.8401 23.6104 16.3301C23.6104 16.7501 23.6104 17.0301 23.6104 17.4501H25.9204V20.1101H23.6104V31.6601H20.0404V20.0401H18.1504V17.3801H20.0404V16.4701C20.0404 14.9301 20.2504 13.8101 20.6704 13.3201C21.3004 12.4101 22.5604 11.9901 24.4504 11.9901C24.6604 12.0601 24.8704 12.0601 25.0804 12.0601Z" fill="#F4F4F4"/>
</g>
<rect x="56.5" y="0.5" width="43" height="43" rx="9.5" stroke="#F4F4F4" stroke-opacity="0.1"/>
<g opacity="0.8">
<path d="M89.1277 17.4115C89.114 16.4715 88.9398 15.5388 88.6065 14.6596C88.0231 13.1583 86.8352 11.9711 85.3313 11.3899C84.4618 11.0633 83.5426 10.8882 82.6122 10.8683C81.4155 10.815 81.0361 10.8 77.9986 10.8C74.961 10.8 74.5716 10.8 73.3837 10.8683C72.4545 10.8882 71.5353 11.0633 70.6658 11.3899C69.162 11.9711 67.9728 13.1583 67.3907 14.6596C67.0635 15.5277 66.8869 16.4454 66.8695 17.373C66.816 18.5689 66.7998 18.9477 66.7998 21.9802C66.7998 25.0127 66.7998 25.4002 66.8695 26.5873C66.8881 27.5162 67.0635 28.4327 67.3907 29.3032C67.974 30.8033 69.162 31.9905 70.6671 32.5717C71.5328 32.9095 72.452 33.1007 73.385 33.1305C74.5828 33.1839 74.9622 33.2001 77.9998 33.2001C81.0374 33.2001 81.4267 33.2001 82.6146 33.1305C83.5438 33.1119 84.4631 32.9368 85.3338 32.6102C86.8377 32.0278 88.0256 30.8406 88.609 29.3405C88.9361 28.4712 89.1115 27.5547 89.1301 26.6246C89.1836 25.43 89.1998 25.0512 89.1998 22.0174C89.1973 18.9849 89.1973 18.5999 89.1277 17.4115ZM77.9911 27.7149C74.8142 27.7149 72.2406 25.1456 72.2406 21.974C72.2406 18.8024 74.8142 16.233 77.9911 16.233C81.1655 16.233 83.7416 18.8024 83.7416 21.974C83.7416 25.1456 81.1655 27.7149 77.9911 27.7149ZM83.9705 17.3594C83.2279 17.3594 82.6296 16.7608 82.6296 16.0207C82.6296 15.2805 83.2279 14.682 83.9705 14.682C84.7106 14.682 85.3102 15.2805 85.3102 16.0207C85.3102 16.7608 84.7106 17.3594 83.9705 17.3594Z" fill="#F4F4F4"/>
<path d="M77.9928 25.4789C79.9277 25.4789 81.4963 23.9104 81.4963 21.9754C81.4963 20.0405 79.9277 18.4719 77.9928 18.4719C76.0578 18.4719 74.4893 20.0405 74.4893 21.9754C74.4893 23.9104 76.0578 25.4789 77.9928 25.4789Z" fill="#F4F4F4"/>
</g>
<rect x="112.5" y="0.5" width="43" height="43" rx="9.5" stroke="#F4F4F4" stroke-opacity="0.1"/>
<g opacity="0.8">
<path fill-rule="evenodd" clip-rule="evenodd" d="M141.21 13.2499C140.02 13.1799 137.57 13.1099 133.86 13.1099H133.37C129.8 13.1099 127.42 13.1799 126.23 13.3199C124.62 13.4599 123.5 13.8799 122.87 14.4399C122.31 14.9299 121.89 15.8399 121.75 17.0299C121.68 17.7999 121.61 19.4099 121.61 21.8599V22.2099C121.61 24.5199 121.68 26.1299 121.82 26.8999C122.03 28.0199 122.38 28.8599 123.08 29.3499C123.78 29.9099 124.97 30.2599 126.65 30.3999C127.84 30.4699 130.29 30.5399 134 30.5399H134.49C138.06 30.5399 140.44 30.4699 141.63 30.3299C143.24 30.1899 144.36 29.7699 144.99 29.2099C145.55 28.7199 145.97 27.8099 146.11 26.6199C146.18 25.8499 146.25 24.2399 146.25 21.7899V21.4399C146.25 19.1299 146.18 17.5199 146.04 16.7499C145.83 15.6299 145.48 14.7899 144.78 14.2999C144.08 13.7399 142.89 13.3899 141.21 13.2499ZM138.48 21.8599L130.78 26.4799V17.2399L138.48 21.8599Z" fill="#F4F4F4"/>
</g>
</svg>
