<svg width="352" height="48" viewBox="0 0 352 48" fill="none" xmlns="http://www.w3.org/2000/svg">
<rect x="0.5" y="0.5" width="351" height="47" rx="23.5" stroke="#F4F4F4"/>
<path d="M15.184 29V17.8H22.112V18.904H16.528V22.808H21.632V23.896H16.528V27.896H22.112V29H15.184ZM24.1353 29V21.064H25.3513L25.4473 22.216C25.7033 21.7893 26.0446 21.4587 26.4713 21.224C26.8979 20.9893 27.3779 20.872 27.9113 20.872C28.5406 20.872 29.0793 21 29.5273 21.256C29.9859 21.512 30.3379 21.9013 30.5833 22.424C30.8606 21.944 31.2393 21.5653 31.7193 21.288C32.2099 21.0107 32.7379 20.872 33.3033 20.872C34.2526 20.872 35.0099 21.16 35.5753 21.736C36.1406 22.3013 36.4233 23.176 36.4233 24.36V29H35.0953V24.504C35.0953 23.6827 34.9299 23.064 34.5993 22.648C34.2686 22.232 33.7939 22.024 33.1753 22.024C32.5353 22.024 32.0019 22.2747 31.5753 22.776C31.1593 23.2667 30.9513 23.9707 30.9513 24.888V29H29.6073V24.504C29.6073 23.6827 29.4419 23.064 29.1113 22.648C28.7806 22.232 28.3059 22.024 27.6873 22.024C27.0579 22.024 26.5299 22.2747 26.1033 22.776C25.6873 23.2667 25.4793 23.9707 25.4793 24.888V29H24.1353ZM41.0878 29.192C40.4264 29.192 39.8771 29.08 39.4398 28.856C39.0024 28.632 38.6771 28.3333 38.4638 27.96C38.2504 27.5867 38.1438 27.1813 38.1438 26.744C38.1438 25.9333 38.4531 25.3093 39.0718 24.872C39.6904 24.4347 40.5331 24.216 41.5998 24.216H43.7438V24.12C43.7438 23.4267 43.5624 22.904 43.1998 22.552C42.8371 22.1893 42.3518 22.008 41.7438 22.008C41.2211 22.008 40.7678 22.1413 40.3838 22.408C40.0104 22.664 39.7758 23.0427 39.6798 23.544H38.3038C38.3571 22.968 38.5491 22.4827 38.8798 22.088C39.2211 21.6933 39.6424 21.3947 40.1438 21.192C40.6451 20.9787 41.1784 20.872 41.7438 20.872C42.8531 20.872 43.6851 21.1707 44.2398 21.768C44.8051 22.3547 45.0878 23.1387 45.0878 24.12V29H43.8878L43.8078 27.576C43.5838 28.024 43.2531 28.408 42.8158 28.728C42.3891 29.0373 41.8131 29.192 41.0878 29.192ZM41.2958 28.056C41.8078 28.056 42.2451 27.9227 42.6078 27.656C42.9811 27.3893 43.2638 27.0427 43.4558 26.616C43.6478 26.1893 43.7438 25.7413 43.7438 25.272V25.256H41.7118C40.9224 25.256 40.3624 25.3947 40.0318 25.672C39.7118 25.9387 39.5518 26.2747 39.5518 26.68C39.5518 27.096 39.7011 27.432 39.9998 27.688C40.3091 27.9333 40.7411 28.056 41.2958 28.056ZM47.92 19.304C47.6533 19.304 47.4293 19.2187 47.248 19.048C47.0773 18.8667 46.992 18.6427 46.992 18.376C46.992 18.12 47.0773 17.9067 47.248 17.736C47.4293 17.5653 47.6533 17.48 47.92 17.48C48.176 17.48 48.3947 17.5653 48.576 17.736C48.7573 17.9067 48.848 18.12 48.848 18.376C48.848 18.6427 48.7573 18.8667 48.576 19.048C48.3947 19.2187 48.176 19.304 47.92 19.304ZM47.248 29V21.064H48.592V29H47.248ZM50.9321 29V17.48H52.2761V29H50.9321Z" fill="#F4F4F4" fill-opacity="0.6"/>
</svg>

