<svg width="273" height="48" viewBox="0 0 273 48" fill="none" xmlns="http://www.w3.org/2000/svg">
<rect x="0.5" y="0.5" width="272" height="47" rx="23.5" stroke="#242424"/>
<path d="M18.752 29.192C17.9307 29.192 17.216 29.0427 16.608 28.744C16 28.4453 15.5307 28.0293 15.2 27.496C14.8693 26.9627 14.704 26.344 14.704 25.64H16.112C16.112 26.0773 16.2133 26.4827 16.416 26.856C16.6187 27.2187 16.912 27.512 17.296 27.736C17.6907 27.9493 18.176 28.056 18.752 28.056C19.5093 28.056 20.096 27.8747 20.512 27.512C20.928 27.1493 21.136 26.696 21.136 26.152C21.136 25.704 21.04 25.3467 20.848 25.08C20.656 24.8027 20.3947 24.5787 20.064 24.408C19.744 24.2373 19.3707 24.088 18.944 23.96C18.528 23.832 18.0907 23.688 17.632 23.528C16.768 23.2293 16.128 22.8613 15.712 22.424C15.296 21.976 15.088 21.3947 15.088 20.68C15.0773 20.0827 15.216 19.5547 15.504 19.096C15.792 18.6267 16.1973 18.264 16.72 18.008C17.2533 17.7413 17.8827 17.608 18.608 17.608C19.3227 17.608 19.9413 17.7413 20.464 18.008C20.9973 18.2747 21.408 18.6427 21.696 19.112C21.9947 19.5813 22.1493 20.1147 22.16 20.712H20.752C20.752 20.4027 20.672 20.0987 20.512 19.8C20.352 19.4907 20.1067 19.24 19.776 19.048C19.456 18.856 19.0507 18.76 18.56 18.76C17.952 18.7493 17.4507 18.904 17.056 19.224C16.672 19.544 16.48 19.9867 16.48 20.552C16.48 21.032 16.6133 21.4 16.88 21.656C17.1573 21.912 17.5413 22.1253 18.032 22.296C18.5227 22.456 19.088 22.6427 19.728 22.856C20.2613 23.048 20.7413 23.272 21.168 23.528C21.5947 23.784 21.9253 24.1147 22.16 24.52C22.4053 24.9253 22.528 25.4427 22.528 26.072C22.528 26.6053 22.3893 27.112 22.112 27.592C21.8347 28.0613 21.4133 28.4453 20.848 28.744C20.2933 29.0427 19.5947 29.192 18.752 29.192ZM27.922 29.192C27.1647 29.192 26.4927 29.0213 25.906 28.68C25.3193 28.328 24.8553 27.8427 24.514 27.224C24.1833 26.6053 24.018 25.8747 24.018 25.032C24.018 24.2 24.1833 23.4747 24.514 22.856C24.8447 22.2267 25.3033 21.7413 25.89 21.4C26.4873 21.048 27.1753 20.872 27.954 20.872C28.722 20.872 29.3833 21.048 29.938 21.4C30.5033 21.7413 30.9353 22.1947 31.234 22.76C31.5327 23.3253 31.682 23.9333 31.682 24.584C31.682 24.7013 31.6767 24.8187 31.666 24.936C31.666 25.0533 31.666 25.1867 31.666 25.336H25.346C25.378 25.944 25.5167 26.4507 25.762 26.856C26.018 27.2507 26.3327 27.5493 26.706 27.752C27.09 27.9547 27.4953 28.056 27.922 28.056C28.4767 28.056 28.9407 27.928 29.314 27.672C29.6873 27.416 29.9593 27.0693 30.13 26.632H31.458C31.2447 27.368 30.834 27.9813 30.226 28.472C29.6287 28.952 28.8607 29.192 27.922 29.192ZM27.922 22.008C27.282 22.008 26.7113 22.2053 26.21 22.6C25.7193 22.984 25.4367 23.5493 25.362 24.296H30.354C30.322 23.5813 30.0767 23.0213 29.618 22.616C29.1593 22.2107 28.594 22.008 27.922 22.008ZM36.1034 29.192C35.442 29.192 34.8927 29.08 34.4554 28.856C34.018 28.632 33.6927 28.3333 33.4794 27.96C33.266 27.5867 33.1594 27.1813 33.1594 26.744C33.1594 25.9333 33.4687 25.3093 34.0874 24.872C34.706 24.4347 35.5487 24.216 36.6154 24.216H38.7594V24.12C38.7594 23.4267 38.578 22.904 38.2154 22.552C37.8527 22.1893 37.3674 22.008 36.7594 22.008C36.2367 22.008 35.7834 22.1413 35.3994 22.408C35.026 22.664 34.7914 23.0427 34.6954 23.544H33.3194C33.3727 22.968 33.5647 22.4827 33.8954 22.088C34.2367 21.6933 34.658 21.3947 35.1594 21.192C35.6607 20.9787 36.194 20.872 36.7594 20.872C37.8687 20.872 38.7007 21.1707 39.2554 21.768C39.8207 22.3547 40.1034 23.1387 40.1034 24.12V29H38.9034L38.8234 27.576C38.5994 28.024 38.2687 28.408 37.8314 28.728C37.4047 29.0373 36.8287 29.192 36.1034 29.192ZM36.3114 28.056C36.8234 28.056 37.2607 27.9227 37.6234 27.656C37.9967 27.3893 38.2794 27.0427 38.4714 26.616C38.6634 26.1893 38.7594 25.7413 38.7594 25.272V25.256H36.7274C35.938 25.256 35.378 25.3947 35.0474 25.672C34.7274 25.9387 34.5674 26.2747 34.5674 26.68C34.5674 27.096 34.7167 27.432 35.0154 27.688C35.3247 27.9333 35.7567 28.056 36.3114 28.056ZM42.1196 29V21.064H43.3356L43.4476 22.584C43.693 22.0613 44.0663 21.6453 44.5676 21.336C45.069 21.0267 45.6876 20.872 46.4236 20.872V22.28H46.0556C45.5863 22.28 45.1543 22.3653 44.7596 22.536C44.365 22.696 44.0503 22.9733 43.8156 23.368C43.581 23.7627 43.4636 24.3067 43.4636 25V29H42.1196ZM51.2833 29.192C50.5259 29.192 49.8433 29.0213 49.2353 28.68C48.6379 28.328 48.1633 27.8427 47.8113 27.224C47.4699 26.5947 47.2993 25.864 47.2993 25.032C47.2993 24.2 47.4699 23.4747 47.8113 22.856C48.1633 22.2267 48.6379 21.7413 49.2353 21.4C49.8433 21.048 50.5259 20.872 51.2833 20.872C52.2219 20.872 53.0113 21.1173 53.6513 21.608C54.3019 22.0987 54.7126 22.7547 54.8833 23.576H53.5073C53.4006 23.0853 53.1393 22.7067 52.7233 22.44C52.3073 22.1627 51.8219 22.024 51.2673 22.024C50.8193 22.024 50.3979 22.136 50.0033 22.36C49.6086 22.584 49.2886 22.92 49.0433 23.368C48.7979 23.816 48.6753 24.3707 48.6753 25.032C48.6753 25.6933 48.7979 26.248 49.0433 26.696C49.2886 27.144 49.6086 27.4853 50.0033 27.72C50.3979 27.944 50.8193 28.056 51.2673 28.056C51.8219 28.056 52.3073 27.9227 52.7233 27.656C53.1393 27.3787 53.4006 26.9893 53.5073 26.488H54.8833C54.7233 27.288 54.3179 27.9387 53.6673 28.44C53.0166 28.9413 52.2219 29.192 51.2833 29.192ZM56.7603 29V17.48H58.1043V22.424C58.3709 21.9333 58.7496 21.5547 59.2403 21.288C59.7309 21.0107 60.2643 20.872 60.8403 20.872C61.7576 20.872 62.4936 21.16 63.0483 21.736C63.6029 22.3013 63.8802 23.176 63.8802 24.36V29H62.5523V24.504C62.5523 22.8507 61.8856 22.024 60.5523 22.024C59.8589 22.024 59.2776 22.2747 58.8083 22.776C58.3389 23.2667 58.1043 23.9707 58.1043 24.888V29H56.7603Z" fill="#242424"/>
<path d="M249.25 29.25C252.564 29.25 255.25 26.5637 255.25 23.25C255.25 19.9363 252.564 17.25 249.25 17.25C245.936 17.25 243.25 19.9363 243.25 23.25C243.25 26.5637 245.936 29.25 249.25 29.25Z" stroke="#242424" stroke-width="1.5" stroke-linecap="round" stroke-linejoin="round"/>
<path d="M256.75 30.75L253.487 27.4875" stroke="#242424" stroke-width="1.5" stroke-linecap="round" stroke-linejoin="round"/>
</svg>
