<svg width="273" height="48" viewBox="0 0 273 48" fill="none" xmlns="http://www.w3.org/2000/svg">
<rect x="0.5" y="0.5" width="272" height="47" rx="23.5" stroke="#242424"/>
<path d="M14.48 29L18.608 17.8H20.032L24.144 29H22.72L21.696 26.12H16.928L15.888 29H14.48ZM17.328 25.032H21.296L19.312 19.496L17.328 25.032ZM26.545 19.304C26.2783 19.304 26.0543 19.2187 25.873 19.048C25.7023 18.8667 25.617 18.6427 25.617 18.376C25.617 18.12 25.7023 17.9067 25.873 17.736C26.0543 17.5653 26.2783 17.48 26.545 17.48C26.801 17.48 27.0197 17.5653 27.201 17.736C27.3823 17.9067 27.473 18.12 27.473 18.376C27.473 18.6427 27.3823 18.8667 27.201 19.048C27.0197 19.2187 26.801 19.304 26.545 19.304ZM25.873 29V21.064H27.217V29H25.873ZM29.5571 29V21.064H30.7731L30.8851 22.584C31.1305 22.0613 31.5038 21.6453 32.0051 21.336C32.5065 21.0267 33.1251 20.872 33.8611 20.872V22.28H33.4931C33.0238 22.28 32.5918 22.3653 32.1971 22.536C31.8025 22.696 31.4878 22.9733 31.2531 23.368C31.0185 23.7627 30.9011 24.3067 30.9011 25V29H29.5571ZM43.844 29.192C43.1933 29.192 42.612 29.0587 42.1 28.792C41.5987 28.5253 41.2147 28.152 40.948 27.672L40.82 29H39.604V17.48H40.948V22.376C41.204 21.992 41.5667 21.6453 42.036 21.336C42.516 21.0267 43.124 20.872 43.86 20.872C44.6493 20.872 45.3373 21.0533 45.924 21.416C46.5107 21.7787 46.964 22.2747 47.284 22.904C47.6147 23.5333 47.78 24.248 47.78 25.048C47.78 25.848 47.6147 26.5627 47.284 27.192C46.964 27.8107 46.5053 28.3013 45.908 28.664C45.3213 29.016 44.6333 29.192 43.844 29.192ZM43.7 28.024C44.2333 28.024 44.7027 27.9013 45.108 27.656C45.5133 27.4 45.8333 27.048 46.068 26.6C46.3027 26.152 46.42 25.6293 46.42 25.032C46.42 24.4347 46.3027 23.912 46.068 23.464C45.8333 23.016 45.5133 22.6693 45.108 22.424C44.7027 22.168 44.2333 22.04 43.7 22.04C43.1667 22.04 42.6973 22.168 42.292 22.424C41.8867 22.6693 41.5667 23.016 41.332 23.464C41.0973 23.912 40.98 24.4347 40.98 25.032C40.98 25.6293 41.0973 26.152 41.332 26.6C41.5667 27.048 41.8867 27.4 42.292 27.656C42.6973 27.9013 43.1667 28.024 43.7 28.024ZM50.4669 19.304C50.2002 19.304 49.9762 19.2187 49.7949 19.048C49.6242 18.8667 49.5389 18.6427 49.5389 18.376C49.5389 18.12 49.6242 17.9067 49.7949 17.736C49.9762 17.5653 50.2002 17.48 50.4669 17.48C50.7229 17.48 50.9415 17.5653 51.1229 17.736C51.3042 17.9067 51.3949 18.12 51.3949 18.376C51.3949 18.6427 51.3042 18.8667 51.1229 19.048C50.9415 19.2187 50.7229 19.304 50.4669 19.304ZM49.7949 29V21.064H51.1389V29H49.7949ZM53.559 30.6V17.48H54.903V30.6H53.559Z" fill="#242424"/>
<path d="M229.75 20.25L222.25 27.75M222.25 20.25L229.75 27.75" stroke="#242424" stroke-width="1.5" stroke-linecap="round" stroke-linejoin="round"/>
<path d="M249.25 29.25C252.564 29.25 255.25 26.5637 255.25 23.25C255.25 19.9363 252.564 17.25 249.25 17.25C245.936 17.25 243.25 19.9363 243.25 23.25C243.25 26.5637 245.936 29.25 249.25 29.25Z" stroke="#242424" stroke-width="1.5" stroke-linecap="round" stroke-linejoin="round"/>
<path d="M256.75 30.75L253.487 27.4875" stroke="#242424" stroke-width="1.5" stroke-linecap="round" stroke-linejoin="round"/>
</svg>
