<svg width="194" height="48" viewBox="0 0 194 48" fill="none" xmlns="http://www.w3.org/2000/svg">
<rect width="194" height="48" rx="24" fill="#F4F4F4"/>
<path d="M24.48 29L28.608 17.8H30.032L34.144 29H32.72L31.696 26.12H26.928L25.888 29H24.48ZM27.328 25.032H31.296L29.312 19.496L27.328 25.032ZM38.8915 29.192C38.1022 29.192 37.4088 29.0107 36.8115 28.648C36.2248 28.2853 35.7662 27.7893 35.4355 27.16C35.1155 26.5307 34.9555 25.816 34.9555 25.016C34.9555 24.216 35.1208 23.5067 35.4515 22.888C35.7822 22.2587 36.2408 21.768 36.8275 21.416C37.4142 21.0533 38.1075 20.872 38.9075 20.872C39.5582 20.872 40.1342 21.0053 40.6355 21.272C41.1368 21.5387 41.5262 21.912 41.8035 22.392V17.48H43.1475V29H41.9315L41.8035 27.688C41.5475 28.072 41.1795 28.4187 40.6995 28.728C40.2195 29.0373 39.6168 29.192 38.8915 29.192ZM39.0355 28.024C39.5688 28.024 40.0382 27.9013 40.4435 27.656C40.8595 27.4 41.1795 27.048 41.4035 26.6C41.6382 26.152 41.7555 25.6293 41.7555 25.032C41.7555 24.4347 41.6382 23.912 41.4035 23.464C41.1795 23.016 40.8595 22.6693 40.4435 22.424C40.0382 22.168 39.5688 22.04 39.0355 22.04C38.5128 22.04 38.0435 22.168 37.6275 22.424C37.2222 22.6693 36.9022 23.016 36.6675 23.464C36.4435 23.912 36.3315 24.4347 36.3315 25.032C36.3315 25.6293 36.4435 26.152 36.6675 26.6C36.9022 27.048 37.2222 27.4 37.6275 27.656C38.0435 27.9013 38.5128 28.024 39.0355 28.024ZM48.9384 29.192C48.149 29.192 47.4557 29.0107 46.8584 28.648C46.2717 28.2853 45.813 27.7893 45.4824 27.16C45.1624 26.5307 45.0024 25.816 45.0024 25.016C45.0024 24.216 45.1677 23.5067 45.4984 22.888C45.829 22.2587 46.2877 21.768 46.8744 21.416C47.461 21.0533 48.1544 20.872 48.9544 20.872C49.605 20.872 50.181 21.0053 50.6824 21.272C51.1837 21.5387 51.573 21.912 51.8504 22.392V17.48H53.1944V29H51.9784L51.8504 27.688C51.5944 28.072 51.2264 28.4187 50.7464 28.728C50.2664 29.0373 49.6637 29.192 48.9384 29.192ZM49.0824 28.024C49.6157 28.024 50.085 27.9013 50.4904 27.656C50.9064 27.4 51.2264 27.048 51.4504 26.6C51.685 26.152 51.8024 25.6293 51.8024 25.032C51.8024 24.4347 51.685 23.912 51.4504 23.464C51.2264 23.016 50.9064 22.6693 50.4904 22.424C50.085 22.168 49.6157 22.04 49.0824 22.04C48.5597 22.04 48.0904 22.168 47.6744 22.424C47.269 22.6693 46.949 23.016 46.7144 23.464C46.4904 23.912 46.3784 24.4347 46.3784 25.032C46.3784 25.6293 46.4904 26.152 46.7144 26.6C46.949 27.048 47.269 27.4 47.6744 27.656C48.0904 27.9013 48.5597 28.024 49.0824 28.024ZM62.7556 29C62.0303 29 61.4596 28.824 61.0436 28.472C60.6276 28.12 60.4196 27.4853 60.4196 26.568V22.2H59.0436V21.064H60.4196L60.5956 19.16H61.7636V21.064H64.0996V22.2H61.7636V26.568C61.7636 27.0693 61.865 27.4107 62.0676 27.592C62.2703 27.7627 62.6276 27.848 63.1396 27.848H63.9716V29H62.7556ZM69.2044 29.192C68.4577 29.192 67.7857 29.0213 67.1884 28.68C66.591 28.3387 66.1164 27.8587 65.7644 27.24C65.423 26.6107 65.2524 25.8747 65.2524 25.032C65.2524 24.1893 65.4284 23.4587 65.7804 22.84C66.1324 22.2107 66.607 21.7253 67.2044 21.384C67.8124 21.0427 68.4897 20.872 69.2364 20.872C69.983 20.872 70.655 21.0427 71.2524 21.384C71.8497 21.7253 72.319 22.2107 72.6604 22.84C73.0124 23.4587 73.1884 24.1893 73.1884 25.032C73.1884 25.8747 73.0124 26.6107 72.6604 27.24C72.3084 27.8587 71.8284 28.3387 71.2204 28.68C70.623 29.0213 69.951 29.192 69.2044 29.192ZM69.2044 28.04C69.663 28.04 70.0897 27.928 70.4844 27.704C70.879 27.48 71.199 27.144 71.4444 26.696C71.6897 26.248 71.8124 25.6933 71.8124 25.032C71.8124 24.3707 71.6897 23.816 71.4444 23.368C71.2097 22.92 70.895 22.584 70.5004 22.36C70.1057 22.136 69.6844 22.024 69.2364 22.024C68.7777 22.024 68.351 22.136 67.9564 22.36C67.5617 22.584 67.2417 22.92 66.9964 23.368C66.751 23.816 66.6284 24.3707 66.6284 25.032C66.6284 25.6933 66.751 26.248 66.9964 26.696C67.2417 27.144 67.5564 27.48 67.9404 27.704C68.335 27.928 68.7564 28.04 69.2044 28.04ZM79.7235 29V22.2H78.5235V21.064H79.7235V19.688C79.7235 18.92 79.9155 18.36 80.2995 18.008C80.6835 17.656 81.2435 17.48 81.9795 17.48H82.7795V18.632H82.1875C81.7822 18.632 81.4942 18.7173 81.3235 18.888C81.1528 19.048 81.0675 19.3253 81.0675 19.72V21.064H83.0195V22.2H81.0675V29H79.7235ZM86.9471 29.192C86.2858 29.192 85.7365 29.08 85.2991 28.856C84.8618 28.632 84.5365 28.3333 84.3231 27.96C84.1098 27.5867 84.0031 27.1813 84.0031 26.744C84.0031 25.9333 84.3125 25.3093 84.9311 24.872C85.5498 24.4347 86.3925 24.216 87.4591 24.216H89.6031V24.12C89.6031 23.4267 89.4218 22.904 89.0591 22.552C88.6965 22.1893 88.2111 22.008 87.6031 22.008C87.0805 22.008 86.6271 22.1413 86.2431 22.408C85.8698 22.664 85.6351 23.0427 85.5391 23.544H84.1631C84.2165 22.968 84.4085 22.4827 84.7391 22.088C85.0805 21.6933 85.5018 21.3947 86.0031 21.192C86.5045 20.9787 87.0378 20.872 87.6031 20.872C88.7125 20.872 89.5445 21.1707 90.0991 21.768C90.6645 22.3547 90.9471 23.1387 90.9471 24.12V29H89.7471L89.6671 27.576C89.4431 28.024 89.1125 28.408 88.6751 28.728C88.2485 29.0373 87.6725 29.192 86.9471 29.192ZM87.1551 28.056C87.6671 28.056 88.1045 27.9227 88.4671 27.656C88.8405 27.3893 89.1231 27.0427 89.3151 26.616C89.5071 26.1893 89.6031 25.7413 89.6031 25.272V25.256H87.5711C86.7818 25.256 86.2218 25.3947 85.8911 25.672C85.5711 25.9387 85.4111 26.2747 85.4111 26.68C85.4111 27.096 85.5605 27.432 85.8591 27.688C86.1685 27.9333 86.6005 28.056 87.1551 28.056ZM94.9545 29L91.9465 21.064H93.3545L95.7385 27.704L98.1385 21.064H99.5145L96.5065 29H94.9545ZM104.22 29.192C103.473 29.192 102.801 29.0213 102.204 28.68C101.607 28.3387 101.132 27.8587 100.78 27.24C100.439 26.6107 100.268 25.8747 100.268 25.032C100.268 24.1893 100.444 23.4587 100.796 22.84C101.148 22.2107 101.623 21.7253 102.22 21.384C102.828 21.0427 103.505 20.872 104.252 20.872C104.999 20.872 105.671 21.0427 106.268 21.384C106.865 21.7253 107.335 22.2107 107.676 22.84C108.028 23.4587 108.204 24.1893 108.204 25.032C108.204 25.8747 108.028 26.6107 107.676 27.24C107.324 27.8587 106.844 28.3387 106.236 28.68C105.639 29.0213 104.967 29.192 104.22 29.192ZM104.22 28.04C104.679 28.04 105.105 27.928 105.5 27.704C105.895 27.48 106.215 27.144 106.46 26.696C106.705 26.248 106.828 25.6933 106.828 25.032C106.828 24.3707 106.705 23.816 106.46 23.368C106.225 22.92 105.911 22.584 105.516 22.36C105.121 22.136 104.7 22.024 104.252 22.024C103.793 22.024 103.367 22.136 102.972 22.36C102.577 22.584 102.257 22.92 102.012 23.368C101.767 23.816 101.644 24.3707 101.644 25.032C101.644 25.6933 101.767 26.248 102.012 26.696C102.257 27.144 102.572 27.48 102.956 27.704C103.351 27.928 103.772 28.04 104.22 28.04ZM110.073 29V21.064H111.289L111.401 22.584C111.646 22.0613 112.019 21.6453 112.521 21.336C113.022 21.0267 113.641 20.872 114.377 20.872V22.28H114.009C113.539 22.28 113.107 22.3653 112.713 22.536C112.318 22.696 112.003 22.9733 111.769 23.368C111.534 23.7627 111.417 24.3067 111.417 25V29H110.073ZM116.701 19.304C116.435 19.304 116.211 19.2187 116.029 19.048C115.859 18.8667 115.773 18.6427 115.773 18.376C115.773 18.12 115.859 17.9067 116.029 17.736C116.211 17.5653 116.435 17.48 116.701 17.48C116.957 17.48 117.176 17.5653 117.357 17.736C117.539 17.9067 117.629 18.12 117.629 18.376C117.629 18.6427 117.539 18.8667 117.357 19.048C117.176 19.2187 116.957 19.304 116.701 19.304ZM116.029 29V21.064H117.373V29H116.029ZM122.849 29C122.124 29 121.553 28.824 121.137 28.472C120.721 28.12 120.513 27.4853 120.513 26.568V22.2H119.137V21.064H120.513L120.689 19.16H121.857V21.064H124.193V22.2H121.857V26.568C121.857 27.0693 121.959 27.4107 122.161 27.592C122.364 27.7627 122.721 27.848 123.233 27.848H124.065V29H122.849ZM129.25 29.192C128.493 29.192 127.821 29.0213 127.234 28.68C126.647 28.328 126.183 27.8427 125.842 27.224C125.511 26.6053 125.346 25.8747 125.346 25.032C125.346 24.2 125.511 23.4747 125.842 22.856C126.173 22.2267 126.631 21.7413 127.218 21.4C127.815 21.048 128.503 20.872 129.282 20.872C130.05 20.872 130.711 21.048 131.266 21.4C131.831 21.7413 132.263 22.1947 132.562 22.76C132.861 23.3253 133.01 23.9333 133.01 24.584C133.01 24.7013 133.005 24.8187 132.994 24.936C132.994 25.0533 132.994 25.1867 132.994 25.336H126.674C126.706 25.944 126.845 26.4507 127.09 26.856C127.346 27.2507 127.661 27.5493 128.034 27.752C128.418 27.9547 128.823 28.056 129.25 28.056C129.805 28.056 130.269 27.928 130.642 27.672C131.015 27.416 131.287 27.0693 131.458 26.632H132.786C132.573 27.368 132.162 27.9813 131.554 28.472C130.957 28.952 130.189 29.192 129.25 29.192ZM129.25 22.008C128.61 22.008 128.039 22.2053 127.538 22.6C127.047 22.984 126.765 23.5493 126.69 24.296H131.682C131.65 23.5813 131.405 23.0213 130.946 22.616C130.487 22.2107 129.922 22.008 129.25 22.008ZM137.832 29.192C136.882 29.192 136.093 28.952 135.464 28.472C134.834 27.992 134.466 27.3413 134.36 26.52H135.736C135.821 26.936 136.04 27.2987 136.392 27.608C136.754 27.9067 137.24 28.056 137.848 28.056C138.413 28.056 138.829 27.9387 139.096 27.704C139.362 27.4587 139.496 27.1707 139.496 26.84C139.496 26.36 139.32 26.04 138.968 25.88C138.626 25.72 138.141 25.576 137.512 25.448C137.085 25.3627 136.658 25.24 136.232 25.08C135.805 24.92 135.448 24.696 135.16 24.408C134.872 24.1093 134.728 23.72 134.728 23.24C134.728 22.5467 134.984 21.9813 135.496 21.544C136.018 21.096 136.722 20.872 137.608 20.872C138.45 20.872 139.138 21.0853 139.672 21.512C140.216 21.928 140.53 22.5253 140.616 23.304H139.288C139.234 22.8987 139.058 22.584 138.76 22.36C138.472 22.1253 138.082 22.008 137.592 22.008C137.112 22.008 136.738 22.1093 136.472 22.312C136.216 22.5147 136.088 22.7813 136.088 23.112C136.088 23.432 136.253 23.6827 136.584 23.864C136.925 24.0453 137.384 24.2 137.96 24.328C138.45 24.4347 138.914 24.568 139.352 24.728C139.8 24.8773 140.162 25.1067 140.44 25.416C140.728 25.7147 140.872 26.152 140.872 26.728C140.882 27.4427 140.61 28.0347 140.056 28.504C139.512 28.9627 138.77 29.192 137.832 29.192Z" fill="#242424"/>
<path d="M167.367 17.8417C166.941 17.4159 166.436 17.0781 165.88 16.8476C165.324 16.6172 164.727 16.4985 164.125 16.4985C163.523 16.4985 162.927 16.6172 162.371 16.8476C161.815 17.0781 161.309 17.4159 160.884 17.8417L160 18.7251L159.117 17.8417C158.257 16.982 157.091 16.499 155.875 16.499C154.66 16.499 153.494 16.982 152.634 17.8417C151.774 18.7015 151.291 19.8675 151.291 21.0834C151.291 22.2993 151.774 23.4653 152.634 24.3251L153.517 25.2084L160 31.6917L166.484 25.2084L167.367 24.3251C167.793 23.8994 168.131 23.3941 168.361 22.8379C168.592 22.2816 168.71 21.6855 168.71 21.0834C168.71 20.4813 168.592 19.8851 168.361 19.3289C168.131 18.7727 167.793 18.2674 167.367 17.8417Z" stroke="#242424" stroke-width="1.5" stroke-linecap="round" stroke-linejoin="round"/>
</svg>
