<svg width="141" height="48" viewBox="0 0 141 48" fill="none" xmlns="http://www.w3.org/2000/svg">
<rect x="0.5" y="0.5" width="140" height="47" rx="23.5" fill="#F4F4F4"/>
<rect x="0.5" y="0.5" width="140" height="47" rx="23.5" stroke="#F4F4F4"/>
<path d="M30 29.192C28.9547 29.192 28.0373 28.952 27.248 28.472C26.4587 27.9813 25.8453 27.304 25.408 26.44C24.9707 25.5653 24.752 24.5573 24.752 23.416C24.752 22.2747 24.9707 21.2667 25.408 20.392C25.856 19.5173 26.4853 18.8347 27.296 18.344C28.1173 17.8533 29.0827 17.608 30.192 17.608C31.4507 17.608 32.496 17.912 33.328 18.52C34.1707 19.128 34.7147 19.9653 34.96 21.032H33.408C33.2587 20.36 32.9013 19.8267 32.336 19.432C31.7813 19.0373 31.0667 18.84 30.192 18.84C29.3707 18.84 28.656 19.0267 28.048 19.4C27.44 19.7627 26.9653 20.2853 26.624 20.968C26.2933 21.6507 26.128 22.4667 26.128 23.416C26.128 24.3653 26.2933 25.1813 26.624 25.864C26.9547 26.5467 27.4133 27.0747 28 27.448C28.5867 27.8107 29.2693 27.992 30.048 27.992C31.2427 27.992 32.144 27.6453 32.752 26.952C33.36 26.248 33.7067 25.288 33.792 24.072H30.56V23.016H35.168V29H33.936L33.824 27.16C33.4187 27.8107 32.9227 28.312 32.336 28.664C31.7493 29.016 30.9707 29.192 30 29.192ZM38.0294 19.304C37.7627 19.304 37.5387 19.2187 37.3574 19.048C37.1867 18.8667 37.1014 18.6427 37.1014 18.376C37.1014 18.12 37.1867 17.9067 37.3574 17.736C37.5387 17.5653 37.7627 17.48 38.0294 17.48C38.2854 17.48 38.504 17.5653 38.6854 17.736C38.8667 17.9067 38.9574 18.12 38.9574 18.376C38.9574 18.6427 38.8667 18.8667 38.6854 19.048C38.504 19.2187 38.2854 19.304 38.0294 19.304ZM37.3574 29V21.064H38.7014V29H37.3574ZM43.3295 29L40.3215 21.064H41.7295L44.1135 27.704L46.5135 21.064H47.8895L44.8815 29H43.3295ZM52.547 29.192C51.7897 29.192 51.1177 29.0213 50.531 28.68C49.9443 28.328 49.4803 27.8427 49.139 27.224C48.8083 26.6053 48.643 25.8747 48.643 25.032C48.643 24.2 48.8083 23.4747 49.139 22.856C49.4697 22.2267 49.9283 21.7413 50.515 21.4C51.1123 21.048 51.8003 20.872 52.579 20.872C53.347 20.872 54.0083 21.048 54.563 21.4C55.1283 21.7413 55.5603 22.1947 55.859 22.76C56.1577 23.3253 56.307 23.9333 56.307 24.584C56.307 24.7013 56.3017 24.8187 56.291 24.936C56.291 25.0533 56.291 25.1867 56.291 25.336H49.971C50.003 25.944 50.1417 26.4507 50.387 26.856C50.643 27.2507 50.9577 27.5493 51.331 27.752C51.715 27.9547 52.1203 28.056 52.547 28.056C53.1017 28.056 53.5657 27.928 53.939 27.672C54.3123 27.416 54.5843 27.0693 54.755 26.632H56.083C55.8697 27.368 55.459 27.9813 54.851 28.472C54.2537 28.952 53.4857 29.192 52.547 29.192ZM52.547 22.008C51.907 22.008 51.3363 22.2053 50.835 22.6C50.3443 22.984 50.0617 23.5493 49.987 24.296H54.979C54.947 23.5813 54.7017 23.0213 54.243 22.616C53.7843 22.2107 53.219 22.008 52.547 22.008ZM64.9628 29.192C64.3014 29.192 63.7521 29.08 63.3148 28.856C62.8774 28.632 62.5521 28.3333 62.3388 27.96C62.1254 27.5867 62.0188 27.1813 62.0188 26.744C62.0188 25.9333 62.3281 25.3093 62.9468 24.872C63.5654 24.4347 64.4081 24.216 65.4748 24.216H67.6188V24.12C67.6188 23.4267 67.4374 22.904 67.0748 22.552C66.7121 22.1893 66.2268 22.008 65.6188 22.008C65.0961 22.008 64.6428 22.1413 64.2588 22.408C63.8854 22.664 63.6508 23.0427 63.5548 23.544H62.1788C62.2321 22.968 62.4241 22.4827 62.7548 22.088C63.0961 21.6933 63.5174 21.3947 64.0188 21.192C64.5201 20.9787 65.0534 20.872 65.6188 20.872C66.7281 20.872 67.5601 21.1707 68.1148 21.768C68.6801 22.3547 68.9628 23.1387 68.9628 24.12V29H67.7628L67.6828 27.576C67.4588 28.024 67.1281 28.408 66.6908 28.728C66.2641 29.0373 65.6881 29.192 64.9628 29.192ZM65.1708 28.056C65.6828 28.056 66.1201 27.9227 66.4828 27.656C66.8561 27.3893 67.1388 27.0427 67.3308 26.616C67.5228 26.1893 67.6188 25.7413 67.6188 25.272V25.256H65.5868C64.7974 25.256 64.2374 25.3947 63.9068 25.672C63.5868 25.9387 63.4268 26.2747 63.4268 26.68C63.4268 27.096 63.5761 27.432 63.8748 27.688C64.1841 27.9333 64.6161 28.056 65.1708 28.056ZM75.2134 29V21.064H76.4294L76.5414 22.584C76.7867 22.0613 77.16 21.6453 77.6614 21.336C78.1627 21.0267 78.7814 20.872 79.5174 20.872V22.28H79.1494C78.68 22.28 78.248 22.3653 77.8534 22.536C77.4587 22.696 77.144 22.9733 76.9094 23.368C76.6747 23.7627 76.5574 24.3067 76.5574 25V29H75.2134ZM83.6659 29.192C83.0045 29.192 82.4552 29.08 82.0179 28.856C81.5805 28.632 81.2552 28.3333 81.0419 27.96C80.8285 27.5867 80.7219 27.1813 80.7219 26.744C80.7219 25.9333 81.0312 25.3093 81.6499 24.872C82.2685 24.4347 83.1112 24.216 84.1779 24.216H86.3219V24.12C86.3219 23.4267 86.1405 22.904 85.7779 22.552C85.4152 22.1893 84.9299 22.008 84.3219 22.008C83.7992 22.008 83.3459 22.1413 82.9619 22.408C82.5885 22.664 82.3539 23.0427 82.2579 23.544H80.8819C80.9352 22.968 81.1272 22.4827 81.4579 22.088C81.7992 21.6933 82.2205 21.3947 82.7219 21.192C83.2232 20.9787 83.7565 20.872 84.3219 20.872C85.4312 20.872 86.2632 21.1707 86.8179 21.768C87.3832 22.3547 87.6659 23.1387 87.6659 24.12V29H86.4659L86.3859 27.576C86.1619 28.024 85.8312 28.408 85.3939 28.728C84.9672 29.0373 84.3912 29.192 83.6659 29.192ZM83.8739 28.056C84.3859 28.056 84.8232 27.9227 85.1859 27.656C85.5592 27.3893 85.8419 27.0427 86.0339 26.616C86.2259 26.1893 86.3219 25.7413 86.3219 25.272V25.256H84.2899C83.5005 25.256 82.9405 25.3947 82.6099 25.672C82.2899 25.9387 82.1299 26.2747 82.1299 26.68C82.1299 27.096 82.2792 27.432 82.5779 27.688C82.8872 27.9333 83.3192 28.056 83.8739 28.056ZM92.5994 29C91.874 29 91.3034 28.824 90.8874 28.472C90.4714 28.12 90.2634 27.4853 90.2634 26.568V22.2H88.8874V21.064H90.2634L90.4394 19.16H91.6074V21.064H93.9434V22.2H91.6074V26.568C91.6074 27.0693 91.7087 27.4107 91.9114 27.592C92.114 27.7627 92.4714 27.848 92.9834 27.848H93.8154V29H92.5994ZM96.4669 19.304C96.2002 19.304 95.9762 19.2187 95.7949 19.048C95.6242 18.8667 95.5389 18.6427 95.5389 18.376C95.5389 18.12 95.6242 17.9067 95.7949 17.736C95.9762 17.5653 96.2002 17.48 96.4669 17.48C96.7229 17.48 96.9415 17.5653 97.1229 17.736C97.3042 17.9067 97.3949 18.12 97.3949 18.376C97.3949 18.6427 97.3042 18.8667 97.1229 19.048C96.9415 19.2187 96.7229 19.304 96.4669 19.304ZM95.7949 29V21.064H97.1389V29H95.7949ZM99.479 29V21.064H100.695L100.775 22.488C101.031 21.9867 101.399 21.592 101.879 21.304C102.359 21.016 102.903 20.872 103.511 20.872C104.45 20.872 105.196 21.16 105.751 21.736C106.316 22.3013 106.599 23.176 106.599 24.36V29H105.255V24.504C105.255 22.8507 104.572 22.024 103.207 22.024C102.524 22.024 101.954 22.2747 101.495 22.776C101.047 23.2667 100.823 23.9707 100.823 24.888V29H99.479ZM111.771 26.504C111.323 26.504 110.913 26.4453 110.539 26.328L109.739 27.08C109.857 27.1653 110.001 27.24 110.171 27.304C110.353 27.3573 110.609 27.4107 110.939 27.464C111.27 27.5067 111.734 27.5547 112.331 27.608C113.398 27.6827 114.161 27.928 114.619 28.344C115.078 28.76 115.307 29.304 115.307 29.976C115.307 30.4347 115.179 30.872 114.923 31.288C114.678 31.704 114.294 32.0453 113.771 32.312C113.259 32.5787 112.598 32.712 111.787 32.712C111.073 32.712 110.438 32.616 109.883 32.424C109.329 32.2427 108.897 31.96 108.587 31.576C108.278 31.2027 108.123 30.728 108.123 30.152C108.123 29.8533 108.203 29.528 108.363 29.176C108.523 28.8347 108.822 28.5093 109.259 28.2C109.025 28.104 108.822 28.0027 108.651 27.896C108.491 27.7787 108.342 27.6507 108.203 27.512V27.144L109.563 25.8C108.934 25.2667 108.619 24.5627 108.619 23.688C108.619 23.1653 108.742 22.6907 108.987 22.264C109.233 21.8373 109.59 21.5013 110.059 21.256C110.529 21 111.099 20.872 111.771 20.872C112.23 20.872 112.646 20.936 113.019 21.064H115.947V22.072L114.459 22.136C114.769 22.584 114.923 23.1013 114.923 23.688C114.923 24.2107 114.795 24.6853 114.539 25.112C114.294 25.5387 113.937 25.88 113.467 26.136C113.009 26.3813 112.443 26.504 111.771 26.504ZM111.771 25.4C112.337 25.4 112.785 25.256 113.115 24.968C113.457 24.6693 113.627 24.2427 113.627 23.688C113.627 23.144 113.457 22.728 113.115 22.44C112.785 22.1413 112.337 21.992 111.771 21.992C111.195 21.992 110.737 22.1413 110.395 22.44C110.065 22.728 109.899 23.144 109.899 23.688C109.899 24.2427 110.065 24.6693 110.395 24.968C110.737 25.256 111.195 25.4 111.771 25.4ZM109.435 30.024C109.435 30.5573 109.659 30.952 110.107 31.208C110.555 31.4747 111.115 31.608 111.787 31.608C112.449 31.608 112.977 31.464 113.371 31.176C113.777 30.888 113.979 30.504 113.979 30.024C113.979 29.6827 113.841 29.384 113.563 29.128C113.286 28.8827 112.774 28.7387 112.027 28.696C111.441 28.6533 110.934 28.6 110.507 28.536C110.07 28.7707 109.782 29.0213 109.643 29.288C109.505 29.5653 109.435 29.8107 109.435 30.024Z" fill="#242424"/>
</svg>
