<svg width="242" height="48" viewBox="0 0 242 48" fill="none" xmlns="http://www.w3.org/2000/svg">
<rect x="0.5" y="0.5" width="241" height="47" rx="23.5" stroke="#F4F4F4"/>
<path d="M25.184 29V17.8H28.8C29.6747 17.8 30.3893 17.944 30.944 18.232C31.4987 18.52 31.9093 18.9147 32.176 19.416C32.4427 19.9173 32.576 20.472 32.576 21.08C32.576 21.784 32.384 22.4187 32 22.984C31.6267 23.5493 31.04 23.9493 30.24 24.184L32.688 29H31.104L28.832 24.376H28.736H26.528V29H25.184ZM26.528 23.32H28.704C29.568 23.32 30.1973 23.112 30.592 22.696C30.9867 22.28 31.184 21.7467 31.184 21.096C31.184 20.4347 30.9867 19.912 30.592 19.528C30.208 19.1333 29.5733 18.936 28.688 18.936H26.528V23.32ZM37.672 29.192C36.9147 29.192 36.2427 29.0213 35.656 28.68C35.0693 28.328 34.6053 27.8427 34.264 27.224C33.9333 26.6053 33.768 25.8747 33.768 25.032C33.768 24.2 33.9333 23.4747 34.264 22.856C34.5947 22.2267 35.0533 21.7413 35.64 21.4C36.2373 21.048 36.9253 20.872 37.704 20.872C38.472 20.872 39.1333 21.048 39.688 21.4C40.2533 21.7413 40.6853 22.1947 40.984 22.76C41.2827 23.3253 41.432 23.9333 41.432 24.584C41.432 24.7013 41.4267 24.8187 41.416 24.936C41.416 25.0533 41.416 25.1867 41.416 25.336H35.096C35.128 25.944 35.2667 26.4507 35.512 26.856C35.768 27.2507 36.0827 27.5493 36.456 27.752C36.84 27.9547 37.2453 28.056 37.672 28.056C38.2267 28.056 38.6907 27.928 39.064 27.672C39.4373 27.416 39.7093 27.0693 39.88 26.632H41.208C40.9947 27.368 40.584 27.9813 39.976 28.472C39.3787 28.952 38.6107 29.192 37.672 29.192ZM37.672 22.008C37.032 22.008 36.4613 22.2053 35.96 22.6C35.4693 22.984 35.1867 23.5493 35.112 24.296H40.104C40.072 23.5813 39.8267 23.0213 39.368 22.616C38.9093 22.2107 38.344 22.008 37.672 22.008ZM43.2134 29V21.064H44.4294L44.5254 22.216C44.7814 21.7893 45.1227 21.4587 45.5494 21.224C45.976 20.9893 46.456 20.872 46.9894 20.872C47.6187 20.872 48.1574 21 48.6054 21.256C49.064 21.512 49.416 21.9013 49.6614 22.424C49.9387 21.944 50.3174 21.5653 50.7974 21.288C51.288 21.0107 51.816 20.872 52.3814 20.872C53.3307 20.872 54.088 21.16 54.6534 21.736C55.2187 22.3013 55.5014 23.176 55.5014 24.36V29H54.1734V24.504C54.1734 23.6827 54.008 23.064 53.6774 22.648C53.3467 22.232 52.872 22.024 52.2534 22.024C51.6134 22.024 51.08 22.2747 50.6534 22.776C50.2374 23.2667 50.0294 23.9707 50.0294 24.888V29H48.6854V24.504C48.6854 23.6827 48.52 23.064 48.1894 22.648C47.8587 22.232 47.384 22.024 46.7654 22.024C46.136 22.024 45.608 22.2747 45.1814 22.776C44.7654 23.2667 44.5574 23.9707 44.5574 24.888V29H43.2134ZM61.1419 29.192C60.3952 29.192 59.7232 29.0213 59.1259 28.68C58.5285 28.3387 58.0539 27.8587 57.7019 27.24C57.3605 26.6107 57.1899 25.8747 57.1899 25.032C57.1899 24.1893 57.3659 23.4587 57.7179 22.84C58.0699 22.2107 58.5445 21.7253 59.1419 21.384C59.7499 21.0427 60.4272 20.872 61.1739 20.872C61.9205 20.872 62.5925 21.0427 63.1899 21.384C63.7872 21.7253 64.2565 22.2107 64.5979 22.84C64.9499 23.4587 65.1259 24.1893 65.1259 25.032C65.1259 25.8747 64.9499 26.6107 64.5979 27.24C64.2459 27.8587 63.7659 28.3387 63.1579 28.68C62.5605 29.0213 61.8885 29.192 61.1419 29.192ZM61.1419 28.04C61.6005 28.04 62.0272 27.928 62.4219 27.704C62.8165 27.48 63.1365 27.144 63.3819 26.696C63.6272 26.248 63.7499 25.6933 63.7499 25.032C63.7499 24.3707 63.6272 23.816 63.3819 23.368C63.1472 22.92 62.8325 22.584 62.4379 22.36C62.0432 22.136 61.6219 22.024 61.1739 22.024C60.7152 22.024 60.2885 22.136 59.8939 22.36C59.4992 22.584 59.1792 22.92 58.9339 23.368C58.6885 23.816 58.5659 24.3707 58.5659 25.032C58.5659 25.6933 58.6885 26.248 58.9339 26.696C59.1792 27.144 59.4939 27.48 59.8779 27.704C60.2725 27.928 60.6939 28.04 61.1419 28.04ZM68.8764 29L65.8684 21.064H67.2764L69.6604 27.704L72.0604 21.064H73.4364L70.4284 29H68.8764ZM78.0939 29.192C77.3365 29.192 76.6645 29.0213 76.0779 28.68C75.4912 28.328 75.0272 27.8427 74.6859 27.224C74.3552 26.6053 74.1899 25.8747 74.1899 25.032C74.1899 24.2 74.3552 23.4747 74.6859 22.856C75.0165 22.2267 75.4752 21.7413 76.0619 21.4C76.6592 21.048 77.3472 20.872 78.1259 20.872C78.8939 20.872 79.5552 21.048 80.1099 21.4C80.6752 21.7413 81.1072 22.1947 81.4059 22.76C81.7045 23.3253 81.8539 23.9333 81.8539 24.584C81.8539 24.7013 81.8485 24.8187 81.8379 24.936C81.8379 25.0533 81.8379 25.1867 81.8379 25.336H75.5179C75.5499 25.944 75.6885 26.4507 75.9339 26.856C76.1899 27.2507 76.5045 27.5493 76.8779 27.752C77.2619 27.9547 77.6672 28.056 78.0939 28.056C78.6485 28.056 79.1125 27.928 79.4859 27.672C79.8592 27.416 80.1312 27.0693 80.3019 26.632H81.6299C81.4165 27.368 81.0059 27.9813 80.3979 28.472C79.8005 28.952 79.0325 29.192 78.0939 29.192ZM78.0939 22.008C77.4539 22.008 76.8832 22.2053 76.3819 22.6C75.8912 22.984 75.6085 23.5493 75.5339 24.296H80.5259C80.4939 23.5813 80.2485 23.0213 79.7899 22.616C79.3312 22.2107 78.7659 22.008 78.0939 22.008ZM88.3016 29V22.2H87.1016V21.064H88.3016V19.688C88.3016 18.92 88.4936 18.36 88.8776 18.008C89.2616 17.656 89.8216 17.48 90.5576 17.48H91.3576V18.632H90.7656C90.3603 18.632 90.0723 18.7173 89.9016 18.888C89.731 19.048 89.6456 19.3253 89.6456 19.72V21.064H91.5976V22.2H89.6456V29H88.3016ZM93.1978 29V21.064H94.4138L94.5258 22.584C94.7711 22.0613 95.1444 21.6453 95.6458 21.336C96.1471 21.0267 96.7658 20.872 97.5018 20.872V22.28H97.1338C96.6644 22.28 96.2324 22.3653 95.8378 22.536C95.4431 22.696 95.1284 22.9733 94.8938 23.368C94.6591 23.7627 94.5418 24.3067 94.5418 25V29H93.1978ZM102.329 29.192C101.583 29.192 100.911 29.0213 100.313 28.68C99.716 28.3387 99.2414 27.8587 98.8894 27.24C98.548 26.6107 98.3774 25.8747 98.3774 25.032C98.3774 24.1893 98.5534 23.4587 98.9054 22.84C99.2574 22.2107 99.732 21.7253 100.329 21.384C100.937 21.0427 101.615 20.872 102.361 20.872C103.108 20.872 103.78 21.0427 104.377 21.384C104.975 21.7253 105.444 22.2107 105.785 22.84C106.137 23.4587 106.313 24.1893 106.313 25.032C106.313 25.8747 106.137 26.6107 105.785 27.24C105.433 27.8587 104.953 28.3387 104.345 28.68C103.748 29.0213 103.076 29.192 102.329 29.192ZM102.329 28.04C102.788 28.04 103.215 27.928 103.609 27.704C104.004 27.48 104.324 27.144 104.569 26.696C104.815 26.248 104.937 25.6933 104.937 25.032C104.937 24.3707 104.815 23.816 104.569 23.368C104.335 22.92 104.02 22.584 103.625 22.36C103.231 22.136 102.809 22.024 102.361 22.024C101.903 22.024 101.476 22.136 101.081 22.36C100.687 22.584 100.367 22.92 100.121 23.368C99.876 23.816 99.7534 24.3707 99.7534 25.032C99.7534 25.6933 99.876 26.248 100.121 26.696C100.367 27.144 100.681 27.48 101.065 27.704C101.46 27.928 101.881 28.04 102.329 28.04ZM108.182 29V21.064H109.398L109.494 22.216C109.75 21.7893 110.091 21.4587 110.518 21.224C110.945 20.9893 111.425 20.872 111.958 20.872C112.587 20.872 113.126 21 113.574 21.256C114.033 21.512 114.385 21.9013 114.63 22.424C114.907 21.944 115.286 21.5653 115.766 21.288C116.257 21.0107 116.785 20.872 117.35 20.872C118.299 20.872 119.057 21.16 119.622 21.736C120.187 22.3013 120.47 23.176 120.47 24.36V29H119.142V24.504C119.142 23.6827 118.977 23.064 118.646 22.648C118.315 22.232 117.841 22.024 117.222 22.024C116.582 22.024 116.049 22.2747 115.622 22.776C115.206 23.2667 114.998 23.9707 114.998 24.888V29H113.654V24.504C113.654 23.6827 113.489 23.064 113.158 22.648C112.827 22.232 112.353 22.024 111.734 22.024C111.105 22.024 110.577 22.2747 110.15 22.776C109.734 23.2667 109.526 23.9707 109.526 24.888V29H108.182ZM127.161 29V22.2H125.961V21.064H127.161V19.688C127.161 18.92 127.353 18.36 127.737 18.008C128.121 17.656 128.681 17.48 129.417 17.48H130.217V18.632H129.625C129.22 18.632 128.932 18.7173 128.761 18.888C128.59 19.048 128.505 19.3253 128.505 19.72V21.064H130.457V22.2H128.505V29H127.161ZM134.385 29.192C133.723 29.192 133.174 29.08 132.737 28.856C132.299 28.632 131.974 28.3333 131.761 27.96C131.547 27.5867 131.441 27.1813 131.441 26.744C131.441 25.9333 131.75 25.3093 132.369 24.872C132.987 24.4347 133.83 24.216 134.897 24.216H137.041V24.12C137.041 23.4267 136.859 22.904 136.497 22.552C136.134 22.1893 135.649 22.008 135.041 22.008C134.518 22.008 134.065 22.1413 133.681 22.408C133.307 22.664 133.073 23.0427 132.977 23.544H131.601C131.654 22.968 131.846 22.4827 132.177 22.088C132.518 21.6933 132.939 21.3947 133.441 21.192C133.942 20.9787 134.475 20.872 135.041 20.872C136.15 20.872 136.982 21.1707 137.537 21.768C138.102 22.3547 138.385 23.1387 138.385 24.12V29H137.185L137.105 27.576C136.881 28.024 136.55 28.408 136.113 28.728C135.686 29.0373 135.11 29.192 134.385 29.192ZM134.593 28.056C135.105 28.056 135.542 27.9227 135.905 27.656C136.278 27.3893 136.561 27.0427 136.753 26.616C136.945 26.1893 137.041 25.7413 137.041 25.272V25.256H135.009C134.219 25.256 133.659 25.3947 133.329 25.672C133.009 25.9387 132.849 26.2747 132.849 26.68C132.849 27.096 132.998 27.432 133.297 27.688C133.606 27.9333 134.038 28.056 134.593 28.056ZM142.392 29L139.384 21.064H140.792L143.176 27.704L145.576 21.064H146.952L143.944 29H142.392ZM151.658 29.192C150.911 29.192 150.239 29.0213 149.642 28.68C149.044 28.3387 148.57 27.8587 148.218 27.24C147.876 26.6107 147.706 25.8747 147.706 25.032C147.706 24.1893 147.882 23.4587 148.234 22.84C148.586 22.2107 149.06 21.7253 149.658 21.384C150.266 21.0427 150.943 20.872 151.69 20.872C152.436 20.872 153.108 21.0427 153.706 21.384C154.303 21.7253 154.772 22.2107 155.114 22.84C155.466 23.4587 155.642 24.1893 155.642 25.032C155.642 25.8747 155.466 26.6107 155.114 27.24C154.762 27.8587 154.282 28.3387 153.674 28.68C153.076 29.0213 152.404 29.192 151.658 29.192ZM151.658 28.04C152.116 28.04 152.543 27.928 152.938 27.704C153.332 27.48 153.652 27.144 153.898 26.696C154.143 26.248 154.266 25.6933 154.266 25.032C154.266 24.3707 154.143 23.816 153.898 23.368C153.663 22.92 153.348 22.584 152.954 22.36C152.559 22.136 152.138 22.024 151.69 22.024C151.231 22.024 150.804 22.136 150.41 22.36C150.015 22.584 149.695 22.92 149.45 23.368C149.204 23.816 149.082 24.3707 149.082 25.032C149.082 25.6933 149.204 26.248 149.45 26.696C149.695 27.144 150.01 27.48 150.394 27.704C150.788 27.928 151.21 28.04 151.658 28.04ZM157.51 29V21.064H158.726L158.838 22.584C159.084 22.0613 159.457 21.6453 159.958 21.336C160.46 21.0267 161.078 20.872 161.814 20.872V22.28H161.446C160.977 22.28 160.545 22.3653 160.15 22.536C159.756 22.696 159.441 22.9733 159.206 23.368C158.972 23.7627 158.854 24.3067 158.854 25V29H157.51ZM164.139 19.304C163.872 19.304 163.648 19.2187 163.467 19.048C163.296 18.8667 163.211 18.6427 163.211 18.376C163.211 18.12 163.296 17.9067 163.467 17.736C163.648 17.5653 163.872 17.48 164.139 17.48C164.395 17.48 164.613 17.5653 164.795 17.736C164.976 17.9067 165.067 18.12 165.067 18.376C165.067 18.6427 164.976 18.8667 164.795 19.048C164.613 19.2187 164.395 19.304 164.139 19.304ZM163.467 29V21.064H164.811V29H163.467ZM170.287 29C169.562 29 168.991 28.824 168.575 28.472C168.159 28.12 167.951 27.4853 167.951 26.568V22.2H166.575V21.064H167.951L168.127 19.16H169.295V21.064H171.631V22.2H169.295V26.568C169.295 27.0693 169.396 27.4107 169.599 27.592C169.802 27.7627 170.159 27.848 170.671 27.848H171.503V29H170.287ZM176.688 29.192C175.93 29.192 175.258 29.0213 174.672 28.68C174.085 28.328 173.621 27.8427 173.28 27.224C172.949 26.6053 172.784 25.8747 172.784 25.032C172.784 24.2 172.949 23.4747 173.28 22.856C173.61 22.2267 174.069 21.7413 174.656 21.4C175.253 21.048 175.941 20.872 176.72 20.872C177.488 20.872 178.149 21.048 178.704 21.4C179.269 21.7413 179.701 22.1947 180 22.76C180.298 23.3253 180.448 23.9333 180.448 24.584C180.448 24.7013 180.442 24.8187 180.432 24.936C180.432 25.0533 180.432 25.1867 180.432 25.336H174.112C174.144 25.944 174.282 26.4507 174.528 26.856C174.784 27.2507 175.098 27.5493 175.472 27.752C175.856 27.9547 176.261 28.056 176.688 28.056C177.242 28.056 177.706 27.928 178.08 27.672C178.453 27.416 178.725 27.0693 178.896 26.632H180.224C180.01 27.368 179.6 27.9813 178.992 28.472C178.394 28.952 177.626 29.192 176.688 29.192ZM176.688 22.008C176.048 22.008 175.477 22.2053 174.976 22.6C174.485 22.984 174.202 23.5493 174.128 24.296H179.12C179.088 23.5813 178.842 23.0213 178.384 22.616C177.925 22.2107 177.36 22.008 176.688 22.008ZM185.269 29.192C184.32 29.192 183.53 28.952 182.901 28.472C182.272 27.992 181.904 27.3413 181.797 26.52H183.173C183.258 26.936 183.477 27.2987 183.829 27.608C184.192 27.9067 184.677 28.056 185.285 28.056C185.85 28.056 186.266 27.9387 186.533 27.704C186.8 27.4587 186.933 27.1707 186.933 26.84C186.933 26.36 186.757 26.04 186.405 25.88C186.064 25.72 185.578 25.576 184.949 25.448C184.522 25.3627 184.096 25.24 183.669 25.08C183.242 24.92 182.885 24.696 182.597 24.408C182.309 24.1093 182.165 23.72 182.165 23.24C182.165 22.5467 182.421 21.9813 182.933 21.544C183.456 21.096 184.16 20.872 185.045 20.872C185.888 20.872 186.576 21.0853 187.109 21.512C187.653 21.928 187.968 22.5253 188.053 23.304H186.725C186.672 22.8987 186.496 22.584 186.197 22.36C185.909 22.1253 185.52 22.008 185.029 22.008C184.549 22.008 184.176 22.1093 183.909 22.312C183.653 22.5147 183.525 22.7813 183.525 23.112C183.525 23.432 183.69 23.6827 184.021 23.864C184.362 24.0453 184.821 24.2 185.397 24.328C185.888 24.4347 186.352 24.568 186.789 24.728C187.237 24.8773 187.6 25.1067 187.877 25.416C188.165 25.7147 188.309 26.152 188.309 26.728C188.32 27.4427 188.048 28.0347 187.493 28.504C186.949 28.9627 186.208 29.192 185.269 29.192Z" fill="#F4F4F4"/>
<path d="M211.333 19V18.3333C211.333 17.3999 211.333 16.9332 211.152 16.5766C210.992 16.263 210.737 16.0081 210.423 15.8483C210.067 15.6666 209.6 15.6666 208.667 15.6666H207.333C206.4 15.6666 205.933 15.6666 205.577 15.8483C205.263 16.0081 205.008 16.263 204.848 16.5766C204.667 16.9332 204.667 17.3999 204.667 18.3333V19M206.333 23.5833V27.75M209.667 23.5833V27.75M200.5 19H215.5M213.833 19V28.3333C213.833 29.7334 213.833 30.4335 213.561 30.9683C213.321 31.4387 212.939 31.8211 212.468 32.0608C211.934 32.3333 211.233 32.3333 209.833 32.3333H206.167C204.767 32.3333 204.066 32.3333 203.532 32.0608C203.061 31.8211 202.679 31.4387 202.439 30.9683C202.167 30.4335 202.167 29.7334 202.167 28.3333V19" stroke="#F4F4F4" stroke-width="1.5" stroke-linecap="round" stroke-linejoin="round"/>
</svg>
